<?xml version="1.0" encoding="utf-8"?>
<!-- Svg Vector Icons : http://www.onlinewebfonts.com/icon -->
<!DOCTYPE svg PUBLIC "-//W3C//DTD SVG 1.1//EN" "http://www.w3.org/Graphics/SVG/1.1/DTD/svg11.dtd">
<svg version="1.1" xmlns="http://www.w3.org/2000/svg" xmlns:xlink="http://www.w3.org/1999/xlink" x="0px" y="0px" viewBox="0 0 1000 1000" enable-background="new 0 0 1000 1000" xml:space="preserve">
<metadata> Svg Vector Icons : http://www.onlinewebfonts.com/icon </metadata>
<g><path d="M295.5,262.6c-22.6,0-41.2-18.3-41.2-40.8V99.3c0-22.6,18.6-40.8,41.2-40.8s41.2,18.3,41.2,40.8v122.5C336.7,244.4,318.1,262.6,295.5,262.6z"/><path d="M850.6,124.9h-64.5v91.7c0,55-26.7,99.5-81.7,99.5s-81.7-44.5-81.7-99.5v-91.7H377.2v91.7c0,55-26.7,99.5-81.7,99.5c-54.9,0-81.7-44.5-81.7-99.5v-91.7h-16.6C107.1,124.9,10,213.3,10,303.5v490c0,90.2,97.1,148,187.3,148h653.3c90.2,0,139.4-57.8,139.4-148v-490C990,213.3,940.8,124.9,850.6,124.9z M907.7,793.5c0,45.1-16,65.7-61.1,65.7H193.3c-45.1,0-102.3-20.6-102.3-65.7V369.2h816.7C907.7,369.2,907.7,625.3,907.7,793.5z"/><path d="M703.8,262.6c22.5,0,40.5-18.3,40.5-40.8V99.3c0-22.6-18-40.8-40.5-40.8c-22.6,0-40.5,18.3-40.5,40.8v122.5C663.3,244.4,681.3,262.6,703.8,262.6z"/><path d="M173.3,451.5h163.3v122.8H173.3V451.5L173.3,451.5z"/><path d="M417.7,451.5H581v122.8H417.7V451.5L417.7,451.5z"/><path d="M663.3,451.5h163.3v122.8H663.3V451.5L663.3,451.5z"/><path d="M173.3,655.4h163.3v122.8H173.3V655.4z"/><path d="M417.7,655.4H581v122.8H417.7V655.4z"/><path d="M663.3,655.4h163.3v122.8H663.3V655.4z"/></g>
</svg>