<?xml version="1.0" encoding="UTF-8" standalone="no"?>
<!-- Created with Inkscape (http://www.inkscape.org/) -->

<svg
   version="1.1"
   id="svg2"
   xml:space="preserve"
   width="102.62174"
   height="110.1153"
   viewBox="0 0 102.62174 110.1153"
   sodipodi:docname="ZBM_logo.svg"
   inkscape:version="1.1.1 (3bf5ae0d25, 2021-09-20)"
   xmlns:inkscape="http://www.inkscape.org/namespaces/inkscape"
   xmlns:sodipodi="http://sodipodi.sourceforge.net/DTD/sodipodi-0.dtd"
   xmlns="http://www.w3.org/2000/svg"
   xmlns:svg="http://www.w3.org/2000/svg"><defs
     id="defs6"><clipPath
       clipPathUnits="userSpaceOnUse"
       id="clipPath20"><path
         d="M 0,595.275 H 841.89 V 0 H 0 Z"
         id="path18" /></clipPath></defs><sodipodi:namedview
     id="namedview4"
     pagecolor="#ffffff"
     bordercolor="#666666"
     borderopacity="1.0"
     inkscape:pageshadow="2"
     inkscape:pageopacity="0.0"
     inkscape:pagecheckerboard="0"
     showgrid="false"
     inkscape:zoom="1.7750955"
     inkscape:cx="-1.1267"
     inkscape:cy="85.629197"
     inkscape:window-width="1920"
     inkscape:window-height="1011"
     inkscape:window-x="0"
     inkscape:window-y="0"
     inkscape:window-maximized="1"
     inkscape:current-layer="g16" /><g
     id="g8"
     inkscape:groupmode="layer"
     inkscape:label="ZBM-krivky-logo-s-zabickou"
     transform="matrix(1.3333333,0,0,-1.3333333,-382.85408,475.12392)"><g
       id="g14"><g
         id="g16"
         clip-path="url(#clipPath20)"
         style="fill:#e03a35;fill-opacity:1"><g
           id="g86"
           transform="translate(360.8486,329.6045)"
           style="fill:#000000;fill-opacity:1"><path
             d="M 0,0 C 0.9,-0.07 1.8,-0.14 2.7,-0.2 2.55,-0.86 2.38,-1.52 2.19,-2.18 c -0.03,0.01 -0.07,0.02 -0.1,0.03 -1.64,0.39 -3.23,0.89 -4.79,1.5 -1.04,0.4 -2.06,0.86 -3.06,1.37 C -3.85,0.43 -1.93,0.19 0,0"
             style="fill:#000000;fill-opacity:1;fill-rule:nonzero;stroke:none"
             id="path88" /></g><g
           id="g90"
           transform="translate(362.4785,325.6646)"
           style="fill:#000000;fill-opacity:1"><path
             d="m 0,0 c -0.25,-0.65 -0.51,-1.29 -0.77,-1.94 -0.78,0.27 -1.54,0.59 -2.29,0.96 -0.24,0.13 -0.49,0.26 -0.73,0.39 C -5.25,0.27 -6.69,1.17 -8.12,2.1 -6.23,1.61 -4.35,1.09 -2.48,0.55 -1.67,0.31 -0.84,0.13 0,0"
             style="fill:#000000;fill-opacity:1;fill-rule:nonzero;stroke:none"
             id="path92" /></g><g
           id="g98"
           transform="translate(335.6689,278.6348)"
           style="fill:#000000;fill-opacity:1"><path
             d="m 0,0 c -1.58,-1.69 -3.33,-3.22 -5.22,-4.55 -0.68,-0.34 -1.46,-0.42 -2.2,-0.221 -0.43,0.171 -0.87,0.341 -1.3,0.511 1.92,1.02 3.7,2.28 5.3,3.75 1.56,1.47 2.96,3.1 4.17,4.87 0.61,0.83 1.1,1.75 1.43,2.73 0.48,1.36 0.52,2.84 0.12,4.23 -1.83,3.48 -4.31,6.58 -7.29,9.15 -1.58,1.19 -3.16,2.41 -4.72,3.64 1.3,2.15 2.03,4.59 2.13,7.1 0.21,1.92 0.05,3.87 -0.47,5.73 1.14,-0.76 2.3,-1.48 3.5,-2.15 2.54,-1.3 5.2,-2.38 7.93,-3.21 1.93,-0.58 3.93,-0.92 5.95,-1.02 1.09,-0.1 2.13,0.47 2.64,1.44 0.52,2.17 0.54,4.44 0.06,6.61 -0.36,1.53 -0.78,3.03 -1.26,4.52 -1.05,3.24 -2.5,6.34 -4.34,9.21 2.75,-1.74 5.58,-3.36 8.47,-4.85 1.72,-0.9 3.47,-1.73 5.26,-2.49 0.91,-0.43 1.85,-0.82 2.8,-1.17 0.69,-0.26 1.39,-0.49 2.1,-0.7 -0.21,-0.39 -0.45,-0.77 -0.71,-1.14 -0.45,-0.55 -1.18,-0.78 -1.86,-0.57 -1.86,0.58 -3.62,1.42 -5.24,2.49 -2.39,1.7 -4.77,3.43 -7.12,5.19 2.25,-2.85 4.01,-6.06 5.2,-9.5 0.86,-2.5 1.43,-5.09 1.69,-7.72 0.08,-1.4 -0.1,-2.81 -0.52,-4.14 -0.35,-0.92 -0.98,-1.71 -1.8,-2.25 -0.6,-0.32 -1.27,-0.48 -1.95,-0.47 -2.58,-0.05 -5.15,0.37 -7.59,1.24 -2.75,0.76 -5.4,1.84 -7.9,3.21 -0.07,-0.99 -0.19,-1.98 -0.34,-2.96 -0.15,-0.84 -0.37,-1.66 -0.66,-2.46 2.93,-2.54 5.59,-5.38 7.94,-8.47 1.19,-1.56 1.96,-3.4 2.25,-5.34 C 6.47,9.16 6.21,8.1 5.71,7.14 4.05,4.58 2.14,2.18 0,0"
             style="fill:#000000;fill-opacity:1;fill-rule:nonzero;stroke:none"
             id="path100" /></g><g
           id="g102"
           transform="translate(330.3389,280.085)"
           style="fill:#000000;fill-opacity:1"><path
             d="m 0,0 c -0.42,-0.891 -1.01,-1.681 -1.75,-2.32 -0.98,-1.02 -2.11,-1.88 -3.35,-2.571 -0.73,0.341 -1.45,0.701 -2.16,1.071 1.2,0.48 2.38,1.03 3.52,1.65 1.32,0.59 2.58,1.31 3.74,2.17"
             style="fill:#000000;fill-opacity:1;fill-rule:nonzero;stroke:none"
             id="path104" /></g><g
           id="g106"
           transform="translate(328.5586,281.1143)"
           style="fill:#000000;fill-opacity:1"><path
             d="m 0,0 c -1.15,-1.02 -2.46,-1.84 -3.87,-2.46 -0.71,-0.409 -1.44,-0.79 -2.19,-1.13 -0.34,-0.16 -0.68,-0.3 -1.03,-0.439 -0.71,0.45 -1.42,0.899 -2.14,1.34 1.27,0.28 2.53,0.58 3.79,0.879 1.85,0.491 3.67,1.09 5.44,1.81"
             style="fill:#000000;fill-opacity:1;fill-rule:nonzero;stroke:none"
             id="path108" /></g><g
           id="g110"
           transform="translate(305.1489,351.2949)"
           style="fill:#000000;fill-opacity:1"><path
             d="m 0,0 c 1.53,-1.2 3.08,-2.37 4.66,-3.49 -1.05,0.34 -2.09,0.74 -3.1,1.19 -1.52,0.59 -3,1.27 -4.44,2.03 0.32,0.58 0.66,1.15 1.02,1.71 C -1.23,0.97 -0.61,0.49 0,0"
             style="fill:#000000;fill-opacity:1;fill-rule:nonzero;stroke:none"
             id="path112" /></g><g
           id="g114"
           transform="translate(325.5688,343.3745)"
           style="fill:#000000;fill-opacity:1"><path
             d="M 0,0 C 1.93,-0.77 3.78,-1.72 5.53,-2.84 5.87,-3.3 6.15,-3.8 6.34,-4.33 6.45,-4.87 6.39,-5.42 6.21,-5.91 6.01,-6.45 5.65,-6.93 5.16,-7.27 4.27,-8.14 3.29,-8.92 2.24,-9.59 c -2.27,-1.62 -4.76,-2.92 -7.38,-3.86 2.96,-0.23 5.87,-0.91 8.62,-2.04 1.93,-0.9 3.7,-2.12 5.24,-3.6 -0.58,2.1 -1.06,4.22 -1.44,6.35 -0.37,1.8 -0.56,3.62 -0.56,5.46 -0.03,0.41 0.03,0.81 0.17,1.17 0.34,0.89 1.15,1.56 2.16,1.67 1.16,-0.16 2.29,-0.44 3.4,-0.82 3.3,-1.03 6.67,-1.86 10.08,-2.48 2.35,-0.48 4.73,-0.77 7.13,-0.87 2.53,-0.2 5.08,-0.17 7.6,0.08 0.02,0 0.03,-0.01 0.04,-0.01 0.83,-0.16 1.37,-0.96 1.21,-1.78 -0.05,-0.4 -0.09,-0.8 -0.13,-1.21 -2.87,0.16 -5.73,0.42 -8.59,0.78 -1.88,0.23 -3.76,0.51 -5.64,0.83 -3.44,0.79 -6.91,1.41 -10.4,1.85 -0.6,-0.02 -1.18,-0.23 -1.65,-0.6 -0.56,-0.51 -0.8,-1.29 -0.61,-2.02 0.25,-2.14 0.6,-4.27 1.05,-6.39 0.37,-1.58 0.77,-3.15 1.22,-4.72 0.69,-2.35 1.54,-4.65 2.54,-6.89 -2.25,2.19 -4.73,4.12 -7.4,5.75 -1.88,1.26 -3.88,2.33 -5.97,3.22 -2.15,0.88 -4.34,1.65 -6.57,2.31 -4.59,1.12 -9.26,1.87 -13.97,2.22 3.78,1.81 7.51,3.72 11.19,5.72 1.98,0.83 3.85,1.89 5.57,3.16 0.71,0.42 1.17,1.16 1.22,1.98 0.08,0.51 -0.04,1.03 -0.33,1.46 -0.61,0.7 -1.35,1.28 -2.17,1.71 -4.73,2.74 -9.34,5.68 -13.83,8.8 -1.62,1.32 -3.31,2.55 -5.06,3.68 0.33,0.43 0.67,0.84 1.02,1.25 0.55,0.48 1.36,0.53 1.97,0.13 0.49,-0.4 0.96,-0.84 1.42,-1.29 C -11.75,6.71 -6.13,2.85 0,0"
             style="fill:#000000;fill-opacity:1;fill-rule:nonzero;stroke:none"
             id="path116" /></g><g
           id="g118"
           transform="translate(303.8589,347.7148)"
           style="fill:#000000;fill-opacity:1"><path
             d="m 0,0 c 1.63,-0.93 3.28,-1.84 4.95,-2.73 -1.64,0.12 -3.26,0.42 -4.82,0.92 -1.2,0.33 -2.36,0.79 -3.46,1.35 0.24,0.66 0.52,1.31 0.84,1.93 C -1.68,0.95 -0.85,0.46 0,0"
             style="fill:#000000;fill-opacity:1;fill-rule:nonzero;stroke:none"
             id="path120" /></g><g
           id="g122"
           transform="translate(311.6187,340.7847)"
           style="fill:#000000;fill-opacity:1"><path
             d="M 0,0 C 2.59,-0.34 5.19,-0.52 7.8,-0.56 3.04,-2.2 -1.56,-4.28 -5.95,-6.77 c -2.62,-1.24 -4.98,-2.98 -6.95,-5.12 -0.7,-0.83 -0.66,-2.05 0.1,-2.83 1.68,-1.45 3.62,-2.55 5.71,-3.26 3.4,-1.32 6.92,-2.27 10.51,-2.83 -0.11,-3.9 -1.16,-7.7 -3.07,-11.1 -2.39,0.65 -4.9,0.8 -7.35,0.43 0.23,1.28 -0.3,2.59 -1.35,3.37 -0.82,0.7 -2.06,0.61 -2.76,-0.21 -0.2,-0.22 -0.34,-0.5 -0.42,-0.79 -0.1,-0.7 0.03,-1.4 0.34,-2.01 l -1.98,-0.07 c -1.65,1.61 -1.81,4.21 -0.36,6.01 1.21,1.19 2.99,1.59 4.59,1.04 2.13,-0.71 3.64,-2.62 3.83,-4.85 0.28,0.03 0.53,0.14 0.75,0.32 0.98,1.41 1.52,3.08 1.57,4.8 -1.65,0.25 -3.28,0.61 -4.88,1.08 -3.76,0.98 -7.32,2.57 -10.56,4.71 -2.09,1.54 -2.69,4.41 -1.38,6.66 1.55,2.14 3.65,3.82 6.07,4.87 4.32,2.18 8.86,3.91 13.54,5.15 -2.45,0.03 -4.88,0.39 -7.24,1.07 -1.39,0.43 -2.75,0.98 -4.04,1.66 -0.66,0.33 -1.03,1.04 -0.93,1.77 0.12,0.52 0.27,1.04 0.42,1.56 C -9.72,3.39 -7.54,2.3 -5.28,1.41 -3.57,0.76 -1.8,0.29 0,0"
             style="fill:#000000;fill-opacity:1;fill-rule:nonzero;stroke:none"
             id="path124" /></g><g
           id="g126"
           transform="translate(299.8286,284.9844)"
           style="fill:#000000;fill-opacity:1"><path
             d="M 0,0 C 0.8,-1.14 1.7,-2.21 2.68,-3.189 3.54,-3.93 4.41,-4.67 5.28,-5.39 4.54,-5.51 3.8,-5.609 3.05,-5.699 2.35,-4.92 1.68,-4.109 1.04,-3.279 0.57,-2.229 0.22,-1.13 0,0"
             style="fill:#000000;fill-opacity:1;fill-rule:nonzero;stroke:none"
             id="path128" /></g><g
           id="g130"
           transform="translate(297.0088,285.4443)"
           style="fill:#000000;fill-opacity:1"><path
             d="M 0,0 C 0.47,-1.449 1.19,-2.8 2.11,-4.01 2.63,-4.8 3.19,-5.569 3.8,-6.3 2.92,-6.33 2.03,-6.31 1.15,-6.25 0.5,-5.239 0.06,-4.109 -0.14,-2.93 -0.35,-1.96 -0.31,-0.949 0,0"
             style="fill:#000000;fill-opacity:1;fill-rule:nonzero;stroke:none"
             id="path132" /></g><g
           id="g134"
           transform="translate(331.5088,287.0352)"
           style="fill:#000000;fill-opacity:1"><path
             d="m 0,0 c -0.4,-0.841 -0.99,-1.591 -1.7,-2.2 -1.49,-1 -3.08,-1.851 -4.74,-2.53 -2.04,-0.871 -4.13,-1.651 -6.24,-2.34 -0.38,-0.13 -0.76,-0.25 -1.14,-0.37 -0.22,0.089 -0.43,0.23 -0.6,0.4 -0.05,0.06 -0.09,0.13 -0.13,0.21 -0.3,0.649 -0.02,1.409 0.63,1.72 3.53,0.589 6.88,1.95 9.83,3.979 0.21,0.2 0.41,0.401 0.59,0.62 0.16,0.37 0.22,0.771 0.17,1.16 -0.15,0.661 -0.52,1.26 -1.04,1.691 -0.69,0.59 -1.5,1.04 -2.37,1.319 -1.8,-1.25 -3.84,-2.109 -5.99,-2.51 -2.36,-0.57 -4.79,-0.849 -7.22,-0.83 -2.39,0.031 -4.77,0.351 -7.08,0.941 -0.21,-0.781 -0.08,-1.611 0.36,-2.3 0.36,-0.9 0.91,-1.721 1.61,-2.4 0.72,-0.571 1.44,-1.14 2.16,-1.71 0.05,-0.04 0.09,-0.09 0.13,-0.14 0.34,-0.45 0.24,-1.091 -0.21,-1.42 -0.34,-0.131 -0.69,-0.23 -1.05,-0.311 -1.8,1.43 -3.49,3 -5.05,4.691 -0.83,0.85 -1.38,1.939 -1.56,3.109 -0.12,0.571 -0.11,1.151 0.04,1.71 -0.57,0.401 -1.14,0.79 -1.71,1.181 -1.63,-0.811 -2.98,-2.07 -3.89,-3.65 -0.54,-0.991 -0.83,-2.1 -0.85,-3.23 -0.03,-1.61 0.43,-3.19 1.31,-4.53 -0.44,0.09 -0.89,0.149 -1.34,0.2 -0.51,0.1 -0.95,0.42 -1.2,0.88 -0.31,0.68 -0.54,1.399 -0.69,2.139 -0.32,1.561 -0.3,3.17 0.07,4.72 0.88,2.301 2.66,4.13 4.93,5.061 -0.2,0.179 -0.38,0.38 -0.55,0.599 -1.78,-0.559 -3.72,-0.139 -5.12,1.09 -1.3,1.591 -1.53,3.801 -0.6,5.631 -0.79,0.37 -1.54,0.83 -2.23,1.359 -0.88,0.721 -1.49,1.701 -1.74,2.801 -0.38,1.659 -0.07,3.4 0.87,4.81 1.14,1.349 3.01,1.84 4.67,1.22 1.16,-0.51 2.11,-1.411 2.66,-2.561 0.55,1.21 1.65,2.081 2.95,2.351 l 1.98,0.069 c 0.25,-0.48 0.6,-0.9 1.05,-1.23 -0.84,-0.179 -1.63,-0.52 -2.35,-0.989 -0.7,-0.42 -1.34,-0.91 -1.93,-1.471 -0.65,-0.779 -1.35,-1.529 -2.1,-2.219 -0.26,1.02 -0.86,1.92 -1.69,2.57 -1.01,0.589 -2.32,0.26 -2.91,-0.76 -0.01,0 -0.01,-0.01 -0.01,-0.01 -0.35,-0.63 -0.38,-1.4 -0.07,-2.05 0.59,-1.321 1.86,-2.2 3.3,-2.31 -0.26,-1.091 -0.27,-2.21 -0.05,-3.31 0.57,-1.521 1.96,-2.58 3.58,-2.71 1.95,-0.111 3.91,0.12 5.79,0.689 3.07,1.021 5.97,2.501 8.6,4.4 1.18,0.98 2.16,2.201 2.86,3.571 -0.2,-1.22 -0.7,-2.361 -1.45,-3.341 -1.11,-1.5 -2.5,-2.77 -4.09,-3.739 -1.84,-1.18 -3.8,-2.18 -5.84,-2.96 0.97,-0.601 2.04,-1.031 3.15,-1.29 1.69,-0.321 3.41,-0.47 5.14,-0.45 2.41,0.03 4.8,0.5 7.04,1.37 1.53,0.53 2.9,1.429 4,2.62 2.24,-0.74 4.37,-1.771 6.33,-3.071 1.05,-0.75 1.9,-1.729 2.5,-2.86 C 0.17,2.1 0.25,1.029 0,0"
             style="fill:#000000;fill-opacity:1;fill-rule:nonzero;stroke:none"
             id="path136" /></g></g></g></g></svg>
