<svg id="svg" xmlns="http://www.w3.org/2000/svg" xmlns:xlink="http://www.w3.org/1999/xlink" width="400" height="387.75510204081627" viewBox="0, 0, 400,387.75510204081627"><g id="svgg"><path id="path0" d="M194.490 0.282 C 177.898 1.377,161.350 8.757,149.285 20.442 C 141.715 27.773,4.245 182.739,2.696 185.687 C -7.388 204.876,13.548 225.724,32.620 215.486 C 36.313 213.504,35.799 214.066,108.632 132.259 C 147.099 89.052,179.448 52.868,180.519 51.851 C 189.964 42.877,205.534 42.175,216.220 50.242 C 217.425 51.152,249.329 86.315,289.243 130.724 C 366.409 216.582,363.549 213.484,367.599 215.585 C 386.839 225.569,407.391 204.883,397.304 185.687 C 396.127 183.446,388.671 174.933,358.475 141.355 C 238.974 8.464,247.648 17.853,239.067 12.106 C 226.039 3.381,210.397 -0.768,194.490 0.282 M194.490 69.992 C 189.169 70.980,185.150 72.948,181.367 76.418 C 179.717 77.933,69.827 206.407,64.168 213.438 C 58.916 219.964,56.614 226.723,56.582 235.714 L 56.560 241.837 67.064 304.082 C 72.841 338.316,77.856 367.337,78.208 368.571 C 80.997 378.343,89.820 385.877,100.157 387.315 C 102.282 387.610,119.699 387.755,153.081 387.755 L 202.837 387.755 202.949 341.122 L 203.061 294.490 204.170 292.388 C 207.271 286.508,207.140 286.531,237.610 286.531 C 266.077 286.531,265.567 286.479,268.645 289.691 C 271.902 293.091,271.619 288.408,271.741 340.951 L 271.850 387.821 285.619 387.662 C 298.626 387.511,299.546 387.451,302.245 386.569 C 310.953 383.722,317.789 376.855,320.161 368.571 C 322.394 360.774,341.799 241.731,341.785 235.918 C 341.763 226.896,339.348 219.841,334.057 213.339 C 329.918 208.253,220.333 79.831,218.415 77.819 C 212.231 71.331,203.195 68.376,194.490 69.992 M165.927 282.805 C 171.907 285.521,172.041 286.134,172.041 310.816 L 172.041 331.633 170.782 333.878 C 167.680 339.409,166.390 339.661,141.988 339.509 C 119.965 339.371,120.614 339.466,117.421 335.914 C 114.674 332.859,114.694 333.046,114.694 310.612 C 114.694 286.510,114.865 285.694,120.505 282.903 C 123.033 281.651,163.198 281.565,165.927 282.805 " stroke="none" fill="#000000" fill-rule="evenodd"></path></g></svg>