<svg id="svg" xmlns="http://www.w3.org/2000/svg" xmlns:xlink="http://www.w3.org/1999/xlink" width="400" height="400" viewBox="0, 0, 400,400"><g id="svgg"><path id="path0" d="M51.953 1.130 C 8.982 11.190,-10.592 52.964,5.260 100.781 C 13.733 126.341,30.942 147.377,73.013 183.602 C 109.028 214.613,115.334 221.435,121.480 236.040 C 132.996 263.405,144.873 282.222,161.148 298.889 C 188.025 326.413,185.120 336.070,143.861 356.358 C 110.784 372.623,100.896 380.760,98.847 393.403 C 98.572 395.098,98.185 397.275,97.987 398.242 L 97.626 400.000 198.923 400.000 L 300.219 400.000 299.766 395.612 C 298.304 381.448,289.353 373.593,255.859 357.083 C 233.970 346.293,227.408 342.079,223.320 336.192 C 217.685 328.075,220.920 315.089,230.778 306.250 C 251.971 287.248,265.088 267.958,278.520 236.040 C 284.666 221.435,290.972 214.613,326.987 183.602 C 383.588 134.866,399.656 109.185,399.584 67.578 C 399.513 26.938,373.724 0.539,333.984 0.428 C 308.203 0.356,288.881 10.484,276.303 30.664 L 274.964 32.813 200.000 32.813 L 125.036 32.813 123.697 30.664 C 109.417 7.753,78.330 -5.045,51.953 1.130 M78.373 35.951 L 82.671 37.559 83.087 44.756 C 83.316 48.715,83.890 59.160,84.362 67.969 C 85.696 92.869,89.285 120.594,94.517 146.418 C 95.816 152.827,96.789 158.153,96.681 158.255 C 96.170 158.734,74.364 139.270,66.130 130.986 C 41.287 105.988,29.836 79.749,34.715 59.002 C 39.296 39.527,59.466 28.877,78.373 35.951 M341.396 34.811 C 371.002 41.789,374.647 79.469,349.034 113.764 C 340.883 124.677,304.878 159.718,303.319 158.255 C 303.211 158.153,304.184 152.827,305.483 146.418 C 310.715 120.594,314.304 92.869,315.638 67.969 C 316.110 59.160,316.683 48.727,316.910 44.784 L 317.325 37.615 320.576 36.312 C 327.621 33.491,333.880 33.040,341.396 34.811 M216.406 158.203 L 216.406 216.406 200.000 216.406 L 183.594 216.406 183.594 183.203 L 183.594 150.000 171.094 150.000 L 158.594 150.000 158.594 139.555 L 158.594 129.110 163.457 128.153 C 175.480 125.787,185.649 115.581,190.144 101.367 C 190.532 100.138,191.877 100.000,203.491 100.000 L 216.406 100.000 216.406 158.203 " stroke="none" fill="#000000" fill-rule="evenodd"></path></g></svg>