<svg id="svg" xmlns="http://www.w3.org/2000/svg" xmlns:xlink="http://www.w3.org/1999/xlink" width="400" height="503.7783375314861" viewBox="0, 0, 400,503.7783375314861"><g id="svgg"><path id="path0" d="M171.552 0.539 C 164.202 1.663,153.962 6.275,150.095 10.204 C 147.575 12.763,146.987 13.808,148.363 13.280 C 149.362 12.897,149.317 13.253,148.113 15.227 C 146.914 17.193,146.863 17.632,147.833 17.632 C 148.471 17.632,148.471 17.854,147.833 19.379 C 147.057 21.236,146.851 23.717,147.481 23.618 C 147.689 23.585,148.004 23.585,148.182 23.618 C 148.747 23.722,146.593 32.381,145.266 35.339 C 143.896 38.393,143.970 38.920,146.171 41.756 C 147.870 43.946,147.445 47.604,145.087 51.076 C 143.979 52.706,143.073 54.247,143.073 54.499 C 143.073 55.218,145.468 57.431,146.247 57.431 C 147.770 57.431,148.706 59.247,148.365 61.542 C 148.120 63.190,148.294 64.286,149.072 65.995 C 149.640 67.242,150.109 69.062,150.115 70.039 C 150.122 71.183,150.485 72.124,151.134 72.679 C 151.688 73.154,152.144 74.167,152.148 74.932 C 152.152 75.697,152.292 76.832,152.459 77.456 C 152.709 78.389,152.559 78.589,151.614 78.589 C 150.983 78.589,149.318 79.326,147.914 80.227 C 145.449 81.809,145.183 81.864,140.056 81.864 L 134.750 81.864 130.782 84.131 C 124.844 87.523,117.995 95.992,111.091 108.478 C 109.649 111.086,108.245 112.699,105.287 115.147 C 102.276 117.637,97.506 122.806,95.360 125.903 C 94.134 127.671,96.551 114.010,98.453 108.416 C 100.085 103.618,100.469 102.989,104.042 99.244 C 107.656 95.457,111.458 88.464,112.259 84.131 C 112.891 80.711,114.086 76.988,115.438 74.227 C 117.246 70.536,115.192 68.786,111.371 70.762 C 109.788 71.581,106.814 76.105,106.806 77.708 C 106.800 78.807,106.006 78.862,105.595 77.793 C 105.106 76.516,105.242 71.937,105.827 70.022 C 106.123 69.054,106.681 66.108,107.066 63.476 C 107.451 60.844,108.045 57.184,108.384 55.343 C 109.167 51.102,108.236 49.058,105.747 49.556 C 104.559 49.793,104.282 49.676,104.282 48.932 C 104.282 46.519,100.804 45.540,99.469 47.577 C 99.026 48.254,98.073 48.877,97.350 48.963 C 96.209 49.098,95.818 49.680,94.369 53.401 C 92.827 57.359,90.964 61.370,85.478 72.544 L 83.375 76.825 83.345 90.176 L 83.314 103.526 81.681 109.773 C 80.783 113.208,78.121 121.483,75.766 128.160 C 70.729 142.446,70.385 144.406,70.619 157.488 L 70.789 167.003 72.669 170.847 C 75.409 176.451,78.942 177.524,87.275 175.282 C 91.847 174.052,108.995 156.689,115.852 146.348 C 120.780 138.916,130.515 125.538,131.039 125.477 C 131.209 125.457,131.464 126.858,131.605 128.589 C 131.746 130.321,132.457 133.148,133.185 134.871 C 134.392 137.728,134.508 138.595,134.502 144.695 C 134.496 151.180,135.491 169.024,136.519 180.856 C 136.796 184.043,137.699 190.050,138.526 194.207 C 139.353 198.363,140.035 203.055,140.040 204.634 C 140.046 206.214,140.487 209.841,141.020 212.695 C 141.575 215.667,141.976 219.945,141.959 222.706 C 141.942 225.358,142.170 228.305,142.466 229.255 C 142.762 230.205,143.151 234.723,143.331 239.295 C 143.693 248.507,144.604 251.660,149.837 261.806 L 151.964 265.930 146.133 269.804 C 123.467 284.866,93.592 310.926,87.657 320.814 C 86.546 322.666,84.901 325.052,84.002 326.116 C 81.762 328.768,81.422 334.979,83.157 341.562 C 85.902 351.979,84.694 364.199,78.325 390.428 C 76.273 398.879,73.914 409.647,73.084 414.358 C 70.747 427.614,65.238 444.836,63.335 444.836 C 62.665 444.836,59.650 448.215,58.615 450.126 C 58.165 450.957,57.035 452.488,56.103 453.528 C 55.171 454.568,54.408 455.716,54.408 456.078 C 54.408 456.714,51.883 459.446,51.295 459.446 C 51.137 459.446,50.872 458.766,50.705 457.935 C 50.156 455.186,46.851 457.998,46.851 461.215 C 46.851 464.461,46.190 465.310,43.402 465.640 C 42.015 465.804,38.644 466.855,35.913 467.975 C 28.006 471.218,24.786 471.861,21.271 470.899 C 18.637 470.178,13.600 469.363,7.437 468.659 C 3.991 468.266,2.098 469.206,0.906 471.901 L -0.068 474.103 1.208 476.280 C 2.853 479.087,8.680 484.513,15.785 489.854 C 25.740 497.337,30.117 499.110,39.674 499.530 C 42.929 499.673,47.519 500.237,49.874 500.783 C 65.969 504.514,66.051 504.496,67.737 496.823 C 67.970 495.760,68.585 494.943,69.510 494.464 C 70.627 493.887,71.145 493.012,71.965 490.317 C 72.537 488.439,73.921 485.384,75.041 483.529 C 77.461 479.522,77.656 477.777,75.766 477.058 C 74.745 476.670,74.514 476.309,74.725 475.433 C 74.874 474.814,75.251 472.834,75.564 471.033 C 75.953 468.791,77.155 465.740,79.376 461.359 C 81.160 457.839,82.620 454.612,82.620 454.187 C 82.620 453.423,90.881 437.274,100.031 420.151 C 112.766 396.320,115.581 386.639,115.610 366.585 L 115.629 353.070 118.646 350.333 C 128.024 341.826,130.853 340.008,147.816 331.590 C 160.512 325.290,166.534 321.798,172.363 317.355 L 176.213 314.420 179.113 318.797 C 188.008 332.221,205.127 350.846,216.121 359.061 C 218.753 361.028,223.098 364.795,225.775 367.433 C 232.701 374.257,235.892 374.813,246.363 371.019 L 251.637 369.108 274.055 368.749 C 286.385 368.552,300.894 368.107,306.297 367.761 C 317.379 367.050,327.111 367.330,330.479 368.455 C 332.641 369.178,336.089 370.078,345.592 372.401 C 350.861 373.689,351.097 373.863,350.780 376.226 C 349.930 382.564,356.778 387.247,359.194 381.980 C 359.681 380.919,360.219 380.417,360.705 380.569 C 361.121 380.700,363.955 381.571,367.003 382.505 C 378.876 386.144,382.418 388.874,388.708 399.236 C 392.698 405.807,397.923 407.780,399.402 403.275 C 401.805 395.949,395.521 380.779,383.993 366.074 C 380.228 361.272,379.410 359.840,377.228 354.235 C 369.811 335.176,363.559 331.259,354.278 339.857 C 350.335 343.510,349.286 344.222,347.492 344.462 C 346.207 344.635,345.033 345.162,344.516 345.799 C 341.923 348.995,320.748 344.960,300.553 337.422 C 284.025 331.252,276.227 330.928,259.767 335.726 C 251.917 338.015,251.881 338.002,245.400 330.492 C 239.453 323.602,238.565 322.021,231.907 306.454 C 228.747 299.066,225.036 290.705,223.660 287.874 C 220.630 281.638,220.639 281.953,223.376 278.429 C 225.237 276.032,225.639 275.109,225.878 272.674 C 226.302 268.354,225.877 252.944,225.270 250.630 C 224.508 247.724,222.770 237.071,222.446 233.320 C 221.579 223.265,219.192 218.402,214.462 217.057 C 211.590 216.241,211.353 215.939,212.366 214.392 C 213.073 213.314,213.179 212.411,212.924 209.663 L 212.608 206.266 214.925 202.812 C 217.997 198.234,219.592 194.226,222.724 183.226 C 227.271 167.257,227.574 166.022,228.458 159.913 C 229.055 155.789,229.624 153.549,230.289 152.703 C 230.844 151.998,231.215 150.813,231.161 149.919 C 231.058 148.200,232.760 144.617,238.005 135.516 C 241.230 129.921,243.325 124.636,243.325 122.097 C 243.325 120.023,244.588 120.185,252.781 123.309 C 265.657 128.220,270.627 129.619,277.330 130.217 C 291.477 131.480,291.564 131.556,292.198 143.073 C 292.419 147.091,292.891 152.691,293.248 155.518 C 294.948 169.005,289.205 190.476,281.888 197.985 C 278.103 201.869,274.721 208.776,273.791 214.518 C 273.304 217.532,272.471 220.109,271.054 222.996 C 268.679 227.834,268.563 228.898,270.287 230.028 C 274.037 232.485,279.597 227.031,279.597 220.896 C 279.597 219.281,280.517 220.278,281.076 222.499 C 281.401 223.790,282.250 226.227,282.963 227.914 C 283.675 229.602,285.568 234.787,287.169 239.436 C 290.299 248.524,292.072 251.651,293.787 251.107 C 294.457 250.894,295.190 251.157,295.970 251.889 C 297.762 253.572,299.244 252.878,299.244 250.356 C 299.244 248.438,299.283 248.396,300.754 248.690 C 303.246 249.188,303.847 248.257,303.462 244.499 C 303.179 241.736,303.262 241.178,304.039 240.610 C 305.122 239.818,304.925 233.999,303.468 223.701 C 302.713 218.364,302.691 217.103,303.285 213.286 C 303.842 209.705,303.845 208.446,303.307 206.109 C 302.173 201.191,302.127 200.178,302.977 198.881 C 303.421 198.203,304.143 195.061,304.582 191.897 C 305.295 186.758,306.431 182.401,312.370 162.023 C 315.329 151.870,316.749 141.398,317.024 127.708 C 317.166 120.583,313.544 117.414,292.242 106.028 C 282.340 100.734,275.833 98.208,269.127 97.051 L 264.954 96.331 261.887 92.984 C 252.929 83.208,240.636 78.610,233.303 82.294 C 230.006 83.950,229.817 83.947,227.406 82.218 C 221.763 78.172,217.635 76.436,214.293 76.704 C 211.691 76.913,210.987 76.800,210.321 76.063 C 209.421 75.068,207.207 74.468,204.534 74.493 C 200.786 74.528,197.319 69.485,196.698 63.094 L 196.343 59.437 198.935 55.210 C 204.819 45.615,208.171 36.240,208.144 29.451 C 208.118 22.820,205.615 12.949,203.246 10.134 C 201.833 8.455,202.078 8.094,205.021 7.518 C 206.455 7.237,206.139 7.157,203.401 7.111 C 199.999 7.053,199.471 6.776,200.605 5.642 C 201.075 5.172,201.025 5.038,200.382 5.038 C 199.928 5.038,199.416 5.264,199.244 5.542 C 198.729 6.376,198.292 6.118,197.099 4.276 C 196.473 3.310,195.691 2.519,195.361 2.519 C 194.899 2.519,194.900 2.658,195.365 3.123 C 196.626 4.384,196.046 5.158,194.584 4.166 C 190.217 1.201,178.890 -0.583,171.552 0.539 " stroke="none" fill="#000000" fill-rule="evenodd"></path></g></svg>