<svg id="svg" xmlns="http://www.w3.org/2000/svg" xmlns:xlink="http://www.w3.org/1999/xlink" width="400" height="490.613266583229" viewBox="0, 0, 400,490.613266583229"><g id="svgg"><path id="path0" d="M273.342 0.546 C 264.049 1.743,252.315 11.949,252.315 18.836 C 252.315 20.634,251.227 22.028,249.821 22.028 C 244.571 22.028,238.985 27.152,233.814 36.710 C 231.203 41.537,229.377 44.270,227.738 45.802 C 225.294 48.088,224.749 48.270,218.648 48.831 C 214.472 49.214,214.384 49.754,218.300 50.957 C 221.859 52.049,221.882 52.357,218.537 54.214 C 212.045 57.819,210.759 58.234,205.384 58.466 L 200.255 58.687 202.130 60.177 C 204.598 62.139,206.914 63.070,209.448 63.118 L 211.514 63.158 209.011 64.387 C 206.645 65.549,206.103 65.609,199.123 65.474 C 191.383 65.325,190.889 65.410,193.120 66.508 C 203.673 71.704,216.700 72.604,227.222 68.864 C 230.814 67.587,230.801 68.235,227.183 70.768 C 224.170 72.877,224.888 73.160,229.927 71.848 C 242.736 68.511,246.932 62.317,248.071 45.059 C 248.809 33.875,249.109 31.539,249.805 31.539 C 250.731 31.539,251.302 33.139,252.047 37.811 C 252.641 41.540,253.220 43.414,254.331 45.215 C 255.150 46.541,255.820 47.722,255.820 47.839 C 255.820 47.956,256.602 49.076,257.558 50.329 C 260.007 53.536,260.492 55.802,260.188 62.595 C 259.801 71.225,258.800 72.951,253.260 74.542 C 251.501 75.046,248.148 76.253,245.807 77.223 C 241.397 79.050,237.564 79.822,230.288 80.346 C 220.897 81.023,219.035 81.506,211.014 85.343 C 203.823 88.783,199.470 90.591,193.282 92.709 C 184.400 95.747,172.657 100.256,165.457 103.391 C 161.877 104.950,157.605 106.789,155.964 107.478 C 139.740 114.286,139.067 116.612,138.168 168.961 C 137.685 197.063,137.396 202.208,135.957 208.260 C 134.561 214.133,135.037 216.764,138.611 222.949 C 141.232 227.484,142.188 227.888,149.687 227.627 C 162.391 227.185,164.268 225.490,165.055 213.751 C 165.472 207.515,164.498 204.508,161.140 201.666 C 159.733 200.474,157.788 198.758,156.818 197.853 L 155.055 196.206 155.344 188.091 C 155.733 177.194,156.874 170.273,161.634 149.937 C 162.730 145.257,163.888 139.512,164.207 137.171 C 165.345 128.826,165.502 128.657,173.478 127.169 C 176.501 126.605,179.875 125.927,180.976 125.662 C 182.078 125.396,187.935 124.035,193.992 122.636 C 200.050 121.237,207.295 119.547,210.092 118.879 C 227.496 114.726,226.643 113.977,226.944 133.667 C 227.108 144.440,227.456 150.047,228.543 159.449 C 232.194 191.040,229.776 201.352,216.952 208.886 C 214.725 210.194,212.723 211.264,212.502 211.264 C 211.273 211.264,199.922 219.050,197.215 221.750 C 187.723 231.216,184.230 241.177,184.230 258.781 L 184.230 267.618 179.725 274.260 C 177.247 277.914,175.219 280.985,175.219 281.086 C 175.219 281.187,174.253 282.921,173.072 284.940 C 169.199 291.559,165.269 299.989,160.733 311.403 C 152.641 331.767,148.517 338.984,141.856 344.441 C 139.735 346.179,134.641 347.880,121.080 351.381 C 111.704 353.801,103.581 357.331,99.374 360.812 C 99.099 361.040,97.522 362.262,95.870 363.528 C 92.743 365.923,87.244 370.937,80.280 377.744 C 47.833 409.456,44.662 411.544,26.283 413.298 C 13.425 414.525,10.310 415.486,7.438 419.115 L 5.757 421.239 6.000 429.768 C 6.437 445.066,6.445 444.991,3.569 452.175 C -0.401 462.091,-0.546 465.669,2.499 478.413 C 6.017 493.132,10.338 494.639,14.517 482.603 C 16.900 475.741,18.656 472.186,22.028 467.397 C 23.410 465.435,25.878 461.915,27.513 459.574 C 29.148 457.234,31.342 454.100,32.389 452.610 C 39.910 441.907,42.445 439.824,61.327 428.840 C 66.834 425.636,71.677 422.798,72.090 422.533 C 72.503 422.269,74.756 420.998,77.096 419.710 C 79.437 418.421,84.506 415.632,88.360 413.510 C 97.962 408.227,103.465 405.342,116.896 398.550 C 128.872 392.495,130.820 391.572,142.428 386.453 C 161.338 378.115,165.669 375.200,177.769 362.670 C 180.410 359.935,185.141 355.334,188.282 352.445 C 191.423 349.557,197.267 343.925,201.269 339.930 C 207.432 333.778,209.816 331.117,215.623 323.905 C 215.956 323.492,216.915 322.253,217.754 321.151 C 218.594 320.050,219.786 318.494,220.404 317.694 C 221.654 316.075,226.126 309.722,228.190 306.633 C 228.926 305.532,229.647 304.518,229.794 304.380 C 229.940 304.243,231.016 302.666,232.184 300.876 C 233.353 299.086,234.743 297.107,235.273 296.477 L 236.236 295.331 241.147 296.883 C 243.848 297.737,247.297 298.866,248.811 299.392 C 258.630 302.802,270.030 304.615,294.368 306.635 C 313.067 308.187,329.545 310.987,334.823 313.509 C 337.194 314.641,336.783 315.775,331.138 323.691 C 322.972 335.143,319.619 343.028,313.912 364.205 C 303.847 401.554,299.984 409.843,285.734 424.657 C 279.568 431.067,277.049 437.851,278.830 443.247 C 279.350 444.823,284.015 449.562,285.047 449.562 C 285.231 449.562,286.465 450.294,287.790 451.189 C 289.115 452.084,291.837 453.830,293.840 455.069 C 297.830 457.537,299.608 458.801,310.388 466.826 C 322.517 475.857,334.235 479.285,345.682 477.152 C 353.603 475.675,353.352 474.962,340.208 461.577 C 333.922 455.175,330.625 451.580,328.005 448.270 C 319.359 437.344,318.504 421.163,325.851 407.509 C 326.073 407.096,327.274 404.844,328.520 402.503 C 329.765 400.163,331.629 396.671,332.661 394.743 C 335.291 389.830,345.851 371.075,347.177 368.961 C 347.782 367.997,349.416 365.181,350.810 362.703 C 353.561 357.810,353.383 358.124,359.569 347.184 C 374.612 320.581,378.527 307.872,375.335 296.010 C 373.850 290.495,371.844 288.399,360.027 280.020 C 356.268 277.354,351.615 274.008,349.687 272.583 C 331.804 259.366,315.985 251.841,284.856 241.745 C 269.011 236.606,270.460 238.220,274.345 230.038 C 278.817 220.619,284.410 204.800,286.116 196.746 C 286.603 194.445,290.585 184.101,294.056 176.122 C 295.576 172.627,297.386 167.700,298.078 165.174 C 299.458 160.141,300.202 158.714,302.162 157.351 C 306.977 153.999,309.286 151.416,312.368 145.932 C 313.296 144.280,314.129 142.838,314.218 142.726 C 314.308 142.615,315.333 143.629,316.498 144.979 C 325.420 155.327,335.512 163.611,340.293 164.510 C 346.059 165.594,363.154 150.853,372.288 136.921 C 373.552 134.994,374.963 132.854,375.424 132.165 C 375.885 131.477,378.600 126.822,381.458 121.821 C 387.452 111.331,387.335 111.496,393.114 105.314 C 403.552 94.147,402.267 84.837,389.465 78.878 C 385.779 77.162,384.925 77.256,382.395 79.651 C 381.202 80.781,379.257 82.130,378.073 82.648 C 374.226 84.332,372.112 91.657,373.647 97.982 C 375.543 105.795,371.977 111.785,359.199 122.258 C 355.895 124.966,352.304 127.909,351.220 128.797 C 347.687 131.694,342.311 135.169,341.364 135.169 C 339.316 135.169,332.733 121.819,326.415 104.856 C 319.594 86.544,314.744 81.188,302.879 78.869 C 294.996 77.328,293.367 76.725,293.367 75.348 C 293.367 73.588,294.731 73.091,299.559 73.091 C 305.063 73.091,306.183 72.640,307.334 69.955 C 308.628 66.936,309.887 61.091,309.887 58.105 L 309.887 55.581 311.923 55.256 C 315.654 54.659,316.049 53.365,314.397 47.154 C 313.475 43.687,313.465 43.280,314.212 39.394 C 315.483 32.774,313.448 23.081,309.880 18.767 C 309.650 18.488,309.188 17.176,308.855 15.852 C 306.425 6.203,288.708 -1.433,273.342 0.546 " stroke="none" fill="#000000" fill-rule="evenodd"></path></g></svg>