<svg id="svg" xmlns="http://www.w3.org/2000/svg" xmlns:xlink="http://www.w3.org/1999/xlink" width="400" height="505.8350747468252" viewBox="0, 0, 400,505.8350747468252"><g id="svgg"><path id="path0" d="M143.450 0.071 C 140.971 0.183,137.806 0.580,135.252 1.098 C 125.751 3.024,119.209 7.070,119.209 11.020 C 119.209 11.345,119.188 11.396,118.936 11.672 C 117.901 12.804,117.121 14.200,116.349 16.300 C 115.499 18.613,115.062 19.666,114.473 20.817 C 114.143 21.462,113.602 22.518,113.272 23.163 C 111.735 26.168,111.551 27.526,112.133 31.570 C 112.532 34.339,112.543 34.459,112.549 35.911 C 112.560 38.722,111.882 40.383,109.134 44.284 C 106.701 47.738,107.005 49.272,110.368 50.502 C 112.233 51.185,112.497 51.319,112.552 51.609 C 112.643 52.097,112.641 53.340,112.546 54.306 C 112.441 55.377,112.458 57.022,112.579 57.509 C 112.649 57.788,112.767 57.900,113.500 58.388 L 113.996 58.717 113.675 59.113 C 112.901 60.065,112.798 60.623,113.230 61.521 C 113.941 62.997,114.274 64.454,114.357 66.452 C 114.454 68.798,114.749 69.685,115.768 70.696 C 117.061 71.979,118.068 72.240,122.231 72.367 C 123.546 72.407,124.933 72.515,125.575 72.627 C 125.663 72.642,125.837 72.670,125.960 72.689 C 128.545 73.086,130.412 73.888,131.388 75.023 C 132.765 76.622,133.286 78.308,133.902 83.170 C 134.331 86.557,134.693 88.227,135.314 89.701 L 135.529 90.209 135.101 90.601 C 133.179 92.360,131.241 93.361,125.671 95.474 C 120.047 97.608,118.142 98.984,114.802 103.327 C 110.800 108.530,109.167 112.121,105.971 122.746 C 103.469 131.061,103.099 132.038,98.873 141.456 C 97.325 144.907,96.879 145.962,95.613 149.172 C 94.479 152.045,93.812 153.511,92.966 154.991 L 92.598 155.634 91.581 155.594 C 88.651 155.478,86.670 154.491,83.781 151.706 C 80.821 148.854,80.525 148.605,78.485 147.262 C 73.568 144.025,72.732 143.361,71.457 141.680 C 69.792 139.484,69.166 136.831,69.575 133.704 C 69.620 133.363,69.641 132.593,69.627 131.812 C 69.570 128.636,69.604 128.410,70.463 126.323 C 71.885 122.865,71.848 121.375,70.281 119.004 C 69.519 117.852,69.142 117.623,67.481 117.312 C 66.332 117.097,65.670 116.874,64.631 116.354 C 62.581 115.326,61.295 115.379,57.418 116.646 C 52.451 118.271,50.295 119.520,48.057 122.071 C 46.322 124.047,45.872 125.126,45.883 127.279 C 45.896 129.594,46.481 131.092,48.963 135.155 C 49.536 136.092,50.341 137.423,50.752 138.113 C 52.545 141.118,53.512 142.489,54.654 143.644 C 55.366 144.365,55.973 144.888,58.477 146.942 C 60.307 148.444,61.369 149.644,63.720 152.869 C 65.257 154.978,65.897 155.758,67.862 157.912 C 71.652 162.065,72.338 163.015,74.455 167.047 C 76.804 171.519,77.657 172.590,81.209 175.532 C 82.019 176.203,82.604 176.701,83.137 177.174 C 83.297 177.316,84.483 178.474,85.774 179.748 C 90.545 184.457,92.053 185.174,96.383 184.792 C 102.189 184.280,105.295 182.297,109.035 176.714 C 111.949 172.365,115.507 165.344,116.249 162.482 C 116.812 160.308,117.532 158.942,118.489 158.237 C 119.003 157.857,119.013 157.856,119.396 158.137 C 120.916 159.253,121.549 160.721,122.321 164.925 C 122.481 165.792,122.727 166.978,122.868 167.561 C 123.532 170.298,124.002 173.090,124.577 177.721 C 125.004 181.159,125.318 182.663,126.603 187.430 C 127.478 190.672,127.667 191.511,128.013 193.667 C 128.573 197.157,128.856 200.645,129.209 208.359 C 129.291 210.156,129.310 210.539,129.372 211.670 C 129.435 212.822,129.487 213.606,129.625 215.496 C 129.685 216.322,129.849 218.075,129.916 218.614 C 130.529 223.560,131.190 226.372,133.012 231.796 C 134.113 235.072,134.563 236.207,135.877 239.029 C 138.244 244.109,138.853 246.174,138.852 249.124 C 138.850 252.111,138.187 253.828,135.810 257.000 C 134.990 258.095,132.474 261.123,132.071 261.501 C 132.052 261.519,131.848 261.750,131.619 262.015 C 131.389 262.280,131.109 262.598,130.996 262.722 C 129.595 264.269,126.531 268.374,124.516 271.403 C 119.463 279.002,115.295 286.939,108.646 301.624 C 107.886 303.303,106.852 305.589,106.349 306.703 C 104.389 311.041,102.927 314.220,101.378 317.510 C 100.443 319.498,98.546 323.343,97.670 325.028 C 97.090 326.142,96.063 328.153,95.386 329.497 C 93.554 333.133,93.336 333.474,89.885 338.113 C 84.524 345.320,83.046 348.859,83.052 354.477 C 83.055 356.462,83.075 356.849,83.334 359.717 C 83.514 361.726,83.526 361.856,83.618 362.964 C 83.827 365.494,83.677 368.567,83.229 370.937 C 82.544 374.559,81.682 376.994,78.419 384.521 C 77.072 387.630,76.299 389.646,75.371 392.477 C 73.560 397.996,72.360 402.691,70.728 410.641 C 68.673 420.647,67.696 424.609,66.123 429.315 C 65.371 431.569,64.736 433.041,62.962 436.650 C 60.990 440.662,60.410 442.087,59.764 444.494 C 58.272 450.055,57.568 451.278,55.604 451.719 C 53.696 452.148,50.060 452.197,48.063 451.822 C 47.032 451.628,43.948 451.395,42.212 451.379 C 40.695 451.365,35.560 451.246,35.043 451.213 C 30.259 450.904,29.134 450.641,24.755 448.815 C 19.831 446.761,17.391 445.631,15.560 444.557 C 12.668 442.859,12.183 442.600,11.027 442.135 C 6.961 440.498,3.266 441.730,1.613 445.273 C 0.770 447.079,0.000 450.387,0.000 452.199 C 0.000 456.218,1.283 460.488,4.153 466.025 C 5.276 468.191,6.109 469.171,9.163 471.913 C 9.587 472.294,10.484 473.164,11.156 473.846 C 14.498 477.239,25.398 485.358,28.484 486.754 C 28.714 486.857,29.785 487.169,30.863 487.445 C 33.549 488.133,34.536 488.444,35.389 488.869 C 36.499 489.423,36.699 489.754,37.040 491.603 C 37.431 493.730,37.775 494.201,40.329 496.112 C 41.776 497.195,42.113 497.489,43.884 499.211 C 46.229 501.492,48.765 502.853,55.136 505.255 C 55.808 505.508,56.385 505.742,56.419 505.775 C 56.502 505.857,57.740 505.853,57.740 505.771 C 57.740 505.735,57.819 505.706,57.917 505.706 C 59.243 505.705,61.910 504.320,63.302 502.909 C 64.228 501.971,64.344 501.761,65.519 498.923 C 68.481 491.765,69.112 490.553,70.758 488.860 C 74.955 484.544,76.536 481.354,76.686 476.901 C 76.754 474.884,76.660 474.442,75.630 471.950 C 74.736 469.788,74.883 469.065,76.965 465.391 C 77.395 464.631,77.998 463.488,78.304 462.852 C 80.984 457.273,83.226 453.093,86.996 446.648 C 89.836 441.793,91.133 439.729,96.375 431.715 C 101.173 424.380,103.482 420.517,105.593 416.294 C 109.163 409.152,111.615 401.836,113.381 393.056 C 114.069 389.640,114.439 386.142,114.773 379.907 C 114.868 378.122,115.089 374.508,115.126 374.120 C 115.142 373.943,115.171 373.581,115.190 373.316 C 115.549 368.135,116.425 363.613,117.710 360.296 C 118.430 358.438,118.785 357.968,121.553 355.216 C 124.240 352.544,124.577 352.136,126.649 349.044 C 128.968 345.583,129.484 345.061,132.712 342.920 C 135.245 341.239,135.814 340.792,137.987 338.769 C 139.279 337.567,141.090 335.611,144.549 331.680 C 147.766 328.023,149.659 326.114,156.341 319.786 C 157.049 319.116,158.018 318.192,158.494 317.731 C 158.971 317.271,159.912 316.363,160.584 315.714 C 162.255 314.101,164.888 311.429,165.898 310.321 C 167.165 308.931,167.918 308.529,168.039 309.178 C 168.191 309.988,169.033 312.085,169.660 313.218 C 170.647 315.002,171.519 316.163,174.359 319.482 C 176.290 321.738,176.955 322.618,179.232 325.928 C 181.304 328.942,182.197 330.085,183.841 331.833 C 185.693 333.801,187.688 335.582,192.638 339.685 C 193.624 340.502,195.877 342.402,195.917 342.450 C 195.935 342.471,196.296 342.794,196.721 343.169 C 198.640 344.861,200.414 346.923,203.796 351.390 C 207.701 356.549,208.825 357.874,211.957 361.006 C 219.034 368.085,224.386 370.423,231.956 369.745 C 235.460 369.431,237.462 369.056,245.684 367.173 C 248.749 366.471,250.304 366.155,252.307 365.829 C 253.767 365.591,254.633 365.482,256.518 365.300 C 257.934 365.162,263.432 365.142,265.199 365.268 C 265.800 365.311,266.494 365.359,266.742 365.376 C 266.989 365.393,267.770 365.451,268.478 365.506 C 269.185 365.561,270.125 365.633,270.567 365.667 C 271.009 365.701,271.472 365.743,271.596 365.761 C 271.720 365.778,272.183 365.822,272.625 365.858 C 273.067 365.894,273.935 365.967,274.554 366.020 C 275.173 366.073,275.882 366.131,276.129 366.149 C 276.377 366.167,276.695 366.195,276.837 366.212 C 279.005 366.465,285.876 366.620,288.732 366.481 C 290.351 366.403,292.800 366.252,294.165 366.147 C 295.421 366.050,297.502 365.875,298.376 365.792 C 298.730 365.759,299.511 365.686,300.113 365.632 C 300.714 365.577,301.321 365.521,301.463 365.507 C 301.913 365.463,302.479 365.410,302.877 365.375 C 303.090 365.356,303.538 365.314,303.874 365.280 C 304.774 365.191,305.842 365.092,306.317 365.053 C 306.547 365.035,306.865 365.006,307.025 364.990 C 307.184 364.973,307.488 364.945,307.700 364.928 C 307.912 364.911,308.433 364.868,308.857 364.832 C 309.927 364.743,311.886 364.591,313.036 364.508 C 313.567 364.470,314.319 364.411,314.708 364.378 C 315.097 364.345,315.604 364.304,315.833 364.286 C 316.388 364.243,317.689 364.134,318.566 364.057 C 318.955 364.023,319.519 363.980,319.820 363.961 C 320.121 363.942,320.497 363.913,320.656 363.896 C 320.815 363.880,321.220 363.851,321.556 363.832 C 321.892 363.813,322.297 363.783,322.456 363.766 C 326.330 363.344,337.626 363.343,339.109 363.765 C 339.163 363.780,339.307 363.808,339.431 363.826 C 341.707 364.168,342.623 364.668,343.809 366.216 C 346.153 369.275,347.099 369.679,350.362 369.014 C 352.876 368.502,353.238 368.645,355.180 370.920 C 356.336 372.274,357.676 373.427,361.903 376.705 C 362.717 377.336,363.469 377.927,363.575 378.018 C 365.375 379.574,366.181 380.373,367.718 382.125 C 370.815 385.655,371.699 386.578,373.413 388.073 C 373.978 388.566,374.572 389.085,374.731 389.225 C 377.020 391.239,378.061 392.674,379.028 395.148 C 381.310 400.983,381.256 400.899,384.430 403.629 C 385.267 404.348,386.486 405.449,387.140 406.076 C 389.692 408.523,390.330 408.825,392.514 408.625 C 396.253 408.283,398.452 405.534,399.415 400.000 C 399.853 397.480,400.024 395.467,399.975 393.409 C 399.914 390.815,399.812 387.885,399.773 387.609 C 398.779 380.464,396.208 374.238,390.878 366.063 C 388.828 362.918,388.319 362.226,386.755 360.457 C 383.560 356.844,383.149 355.804,382.929 350.780 C 382.827 348.443,382.614 346.904,382.228 345.717 C 380.270 339.692,375.705 332.432,369.569 325.586 C 367.070 322.797,365.222 321.572,363.333 321.450 C 361.467 321.329,360.777 321.805,358.553 324.751 C 356.633 327.293,353.576 330.291,348.304 334.803 C 347.296 335.665,346.139 336.665,345.732 337.025 C 342.875 339.551,341.884 340.024,338.917 340.275 C 337.664 340.381,333.471 340.241,332.037 340.045 C 331.913 340.028,331.580 339.999,331.297 339.979 C 331.014 339.960,330.653 339.931,330.493 339.915 C 330.193 339.884,330.009 339.867,328.725 339.753 C 328.301 339.716,327.621 339.655,327.214 339.618 C 326.808 339.581,326.330 339.538,326.153 339.522 C 324.160 339.341,321.162 338.913,319.016 338.503 C 317.313 338.177,317.166 338.144,313.840 337.310 C 310.180 336.393,306.971 335.620,304.356 335.025 C 303.864 334.913,300.180 334.050,297.637 333.452 C 296.558 333.198,293.564 332.459,290.982 331.811 C 284.318 330.136,282.183 329.661,278.862 329.111 C 278.524 329.055,276.820 328.825,276.483 328.790 C 276.288 328.769,276.057 328.740,275.968 328.726 C 275.880 328.711,275.620 328.684,275.390 328.666 C 275.160 328.647,274.596 328.597,274.136 328.553 C 273.624 328.505,272.218 328.474,270.503 328.474 C 267.983 328.473,267.415 328.495,265.713 328.660 C 265.571 328.673,265.253 328.703,265.006 328.726 C 264.593 328.764,262.950 328.982,261.855 329.145 C 258.700 329.613,255.638 330.516,251.824 332.101 C 247.014 334.102,244.856 334.769,242.373 335.024 C 241.933 335.070,240.124 335.070,239.769 335.024 C 235.622 334.495,234.209 333.000,231.504 326.278 C 230.769 324.452,230.494 323.818,229.834 322.424 C 227.856 318.246,225.609 312.709,222.568 304.517 C 222.062 303.155,221.455 301.521,221.219 300.884 C 215.523 285.548,213.157 280.129,209.988 275.165 C 206.359 269.481,206.272 268.643,208.794 263.673 C 209.849 261.592,210.139 260.888,210.443 259.669 C 211.881 253.908,212.260 248.185,211.603 242.148 C 211.122 237.721,209.349 231.990,206.742 226.427 C 205.831 224.484,204.682 222.398,203.021 219.675 C 199.328 213.619,197.766 210.783,198.016 210.589 C 198.496 210.219,199.527 209.940,200.431 209.936 C 201.746 209.930,202.383 209.556,203.717 208.007 C 205.120 206.379,205.371 206.162,207.478 204.764 C 211.430 202.143,213.488 199.486,218.068 191.095 C 222.600 182.793,224.512 180.479,229.610 177.128 C 230.335 176.652,231.492 175.893,232.181 175.440 C 235.344 173.366,236.199 172.621,242.854 166.145 C 244.145 164.889,245.824 163.269,246.584 162.545 C 259.322 150.425,263.223 143.623,262.782 134.304 C 262.507 128.507,261.186 126.195,255.972 122.384 C 249.185 117.424,244.842 114.675,235.686 109.545 C 233.960 108.579,230.428 106.510,229.738 106.062 C 229.614 105.982,229.021 105.603,228.420 105.220 C 226.058 103.714,224.967 102.863,220.511 99.051 C 217.945 96.856,216.072 95.591,210.609 92.367 C 209.902 91.949,209.193 91.528,209.034 91.431 C 204.346 88.566,196.874 84.855,191.738 82.839 C 187.305 81.099,184.648 80.294,179.135 79.021 C 174.375 77.922,171.323 77.069,170.467 76.599 C 168.816 75.692,165.920 72.034,165.085 69.803 C 164.332 67.791,164.675 62.279,165.676 60.280 C 166.324 58.986,167.063 58.315,169.142 57.127 C 171.090 56.014,171.845 55.462,172.795 54.456 C 176.025 51.032,177.511 45.861,177.985 36.387 L 178.065 34.807 178.262 35.032 C 178.371 35.156,178.619 35.358,178.814 35.481 C 179.008 35.604,179.175 35.710,179.184 35.717 C 179.193 35.724,179.118 35.929,179.018 36.174 C 178.542 37.331,178.397 38.110,178.448 39.250 C 178.512 40.713,178.682 40.762,179.613 39.589 C 180.789 38.107,180.746 39.055,179.404 44.237 C 178.708 46.925,178.635 48.657,179.144 50.375 C 179.446 51.393,179.821 51.894,181.032 52.903 C 183.497 54.957,185.181 57.502,186.765 61.566 C 186.889 61.884,187.059 62.318,187.143 62.530 C 187.227 62.742,187.499 63.462,187.747 64.130 C 188.431 65.969,188.755 66.371,190.776 67.891 C 191.358 68.329,191.913 68.761,192.010 68.851 C 192.283 69.105,192.279 68.995,191.990 68.341 C 190.295 64.506,188.939 59.825,188.244 55.416 L 188.095 54.474 188.422 54.571 C 190.060 55.057,191.202 56.079,191.675 57.483 C 191.941 58.272,192.002 58.891,192.057 61.308 C 192.133 64.629,192.346 65.546,193.283 66.571 C 193.677 67.002,193.773 67.016,194.226 66.711 C 195.324 65.971,195.554 64.787,195.381 60.762 L 195.327 59.508 196.415 61.405 C 200.159 67.934,202.578 70.308,206.708 71.507 C 206.993 71.590,207.194 71.685,207.217 71.749 C 207.299 71.974,207.654 72.432,208.187 73.000 C 209.039 73.906,209.251 74.401,209.419 75.872 C 209.646 77.855,210.242 78.844,211.988 80.136 C 213.583 81.316,214.521 80.883,214.399 79.023 C 214.250 76.734,214.328 76.220,215.004 75.045 C 215.286 74.556,215.424 74.257,215.551 73.865 C 215.581 73.773,215.861 73.915,217.213 74.705 C 219.546 76.068,219.767 76.191,220.793 76.705 C 222.682 77.650,224.639 78.322,226.234 78.573 C 226.481 78.612,226.756 78.660,226.845 78.680 C 227.111 78.741,226.923 78.598,225.398 77.577 C 219.947 73.929,218.042 71.388,217.222 66.677 C 217.114 66.052,217.106 65.589,217.125 60.376 C 217.155 51.994,217.173 52.084,214.975 49.957 C 212.869 47.921,211.405 46.991,209.002 46.166 C 206.443 45.287,205.762 44.932,204.276 43.700 C 201.429 41.340,199.724 38.667,195.821 30.445 C 192.579 23.614,190.268 19.798,187.883 17.337 C 185.582 14.963,181.789 13.445,175.501 12.383 C 174.971 12.293,174.466 12.207,174.377 12.191 C 174.289 12.175,174.185 12.160,174.148 12.157 C 174.110 12.155,173.924 11.943,173.734 11.686 C 169.165 5.516,162.491 1.411,155.313 0.358 C 155.171 0.337,154.665 0.258,154.187 0.182 C 153.220 0.028,146.027 -0.047,143.450 0.071 M198.965 122.684 C 199.128 122.827,199.291 122.897,199.573 122.942 C 200.854 123.148,202.204 123.622,205.332 124.964 C 206.545 125.484,207.411 125.818,209.002 126.381 C 209.532 126.568,210.863 127.045,211.959 127.440 C 218.125 129.664,221.544 130.647,226.716 131.686 C 228.249 131.993,228.568 132.064,229.609 132.325 C 233.160 133.217,234.303 134.056,234.303 135.769 C 234.303 137.630,233.755 139.220,230.723 146.150 C 229.973 147.866,229.023 149.513,227.406 151.905 C 226.808 152.789,225.472 154.785,224.437 156.341 C 220.829 161.768,220.517 162.152,216.461 166.179 C 213.304 169.313,212.928 169.771,211.221 172.559 C 209.499 175.372,208.800 176.350,207.782 177.370 C 206.460 178.694,205.017 179.317,203.605 179.176 C 202.457 179.061,202.012 179.039,200.868 179.044 C 197.222 179.059,193.707 180.024,191.766 181.542 C 190.905 182.216,190.299 182.535,189.782 182.588 L 189.403 182.627 189.439 182.151 C 189.490 181.493,189.762 180.790,190.405 179.662 C 191.439 177.846,192.107 175.464,192.897 170.778 C 193.142 169.324,193.194 168.964,193.471 166.822 C 193.736 164.774,194.095 161.068,194.275 158.528 C 194.437 156.238,194.558 154.452,194.663 152.805 C 194.777 151.027,194.876 149.443,194.921 148.658 C 195.075 146.028,195.225 143.949,195.374 142.389 C 195.401 142.104,195.744 138.878,195.818 138.209 C 196.014 136.449,196.109 134.217,196.042 132.963 C 195.990 131.992,195.912 131.512,195.466 129.433 C 195.235 128.352,195.149 127.106,195.267 126.539 C 195.519 125.334,197.190 123.197,198.338 122.612 C 198.658 122.449,198.703 122.454,198.965 122.684 " stroke="none" fill="#000000" fill-rule="evenodd"></path></g></svg>