<svg id="svg" xmlns="http://www.w3.org/2000/svg" xmlns:xlink="http://www.w3.org/1999/xlink" width="400" height="590.6040268456376" viewBox="0, 0, 400,590.6040268456376"><g id="svgg"><path id="path0" d="M116.829 1.441 C 103.022 4.565,88.898 18.391,88.335 29.332 C 88.259 30.814,87.728 32.749,87.155 33.631 C 81.914 41.698,78.494 53.176,81.126 53.864 C 83.314 54.436,82.914 56.623,79.195 64.430 C 74.845 73.558,75.162 75.839,80.777 75.839 C 82.720 75.839,82.730 75.860,82.302 78.980 C 81.945 81.584,82.104 82.368,83.234 83.570 C 84.498 84.916,84.523 85.160,83.577 86.973 C 82.204 89.606,82.282 90.295,84.112 91.735 C 84.971 92.410,85.881 94.003,86.135 95.275 C 86.631 97.753,88.929 100.671,90.385 100.671 C 91.883 100.671,91.314 101.562,88.027 104.362 C 78.869 112.164,72.111 123.109,68.850 135.421 C 66.929 142.676,65.917 144.465,59.330 152.246 C 56.639 155.426,53.059 160.641,51.375 163.834 C 46.630 172.834,46.564 172.846,42.250 165.464 C 39.019 159.936,39.017 160.445,42.282 157.047 C 43.758 155.510,44.966 153.894,44.966 153.456 C 44.966 153.018,46.178 150.249,47.659 147.303 C 49.141 144.354,50.684 140.044,51.090 137.713 C 51.524 135.229,52.443 132.734,53.315 131.673 C 58.091 125.864,60.529 120.289,58.889 118.928 C 54.459 115.251,48.770 120.364,44.666 131.711 C 43.408 135.191,41.965 135.802,40.037 133.672 C 38.612 132.098,38.636 131.834,40.354 130.116 C 41.575 128.895,41.727 128.163,41.406 125.051 C 40.523 116.499,33.989 111.109,30.257 115.854 C 28.931 117.539,28.803 117.567,27.212 116.525 C 24.139 114.511,20.134 116.005,20.134 119.166 C 20.134 120.627,19.847 120.805,17.488 120.805 C 15.557 120.805,14.573 121.188,13.850 122.220 C 13.305 122.999,12.551 123.445,12.175 123.213 C 11.150 122.579,8.125 126.160,7.257 129.034 C 6.157 132.675,7.875 140.543,12.421 152.685 C 13.388 155.268,14.915 158.644,15.815 160.187 C 16.714 161.729,17.450 164.027,17.450 165.293 C 17.450 166.560,18.311 169.224,19.365 171.214 C 20.418 173.204,22.407 178.305,23.785 182.550 C 29.138 199.037,42.255 219.468,47.482 219.461 C 52.184 219.454,64.730 213.521,66.652 210.394 C 68.570 207.275,78.639 191.644,78.932 191.331 C 79.541 190.682,79.866 192.037,80.618 198.357 C 81.055 202.029,81.881 205.940,82.455 207.047 C 83.167 208.423,83.640 212.033,83.948 218.456 C 84.335 226.512,84.713 228.810,86.598 234.564 C 87.808 238.255,90.525 246.560,92.637 253.020 C 94.749 259.480,96.697 266.124,96.967 267.785 C 97.987 274.071,100.848 284.990,102.066 287.248 C 103.377 289.677,107.383 301.648,107.383 303.137 C 107.383 304.338,105.933 304.993,94.104 309.134 C 68.582 318.069,15.496 352.077,8.925 363.702 C 7.969 365.394,6.037 368.591,4.633 370.805 C -2.334 381.795,-1.781 385.012,11.784 412.416 C 17.036 423.025,20.608 431.316,23.206 438.926 C 28.228 453.639,34.419 469.226,40.133 481.544 C 45.648 493.434,48.054 500.690,49.366 509.393 C 50.805 518.941,50.451 531.369,48.725 531.883 C 48.319 532.004,47.165 532.282,46.160 532.502 C 43.517 533.081,42.755 535.067,42.258 542.683 C 41.754 550.398,41.680 550.544,32.672 561.639 C 27.157 568.432,23.688 571.446,16.068 576.065 C 6.216 582.036,6.856 590.604,17.154 590.604 C 37.985 590.604,55.014 584.894,68.121 573.514 C 73.971 568.435,77.343 566.128,85.126 561.882 C 95.085 556.448,96.268 554.912,95.704 548.145 C 94.874 538.201,90.596 527.575,86.847 526.149 C 80.329 523.671,69.964 478.390,68.802 447.315 C 68.119 429.050,66.923 422.420,61.048 404.363 C 59.586 399.868,58.389 395.711,58.389 395.124 C 58.389 392.704,73.218 387.325,86.577 384.900 C 95.707 383.242,108.582 379.915,122.819 375.534 C 132.470 372.564,131.501 372.411,134.345 377.349 C 140.582 388.176,153.048 403.180,173.320 424.257 C 179.939 431.138,187.276 439.337,189.624 442.476 C 196.497 451.664,201.839 454.138,217.450 455.366 C 225.085 455.967,228.789 456.856,244.969 461.971 C 266.389 468.742,272.927 470.717,290.940 475.854 C 310.795 481.517,313.069 482.372,327.517 489.604 C 349.241 500.479,350.721 501.611,347.148 504.630 C 342.713 508.378,345.071 510.738,353.251 510.738 C 363.047 510.738,377.426 524.042,385.916 540.960 C 387.734 544.583,389.902 548.023,390.733 548.606 C 403.528 557.568,403.459 525.192,390.640 505.034 C 382.185 491.738,381.549 489.912,380.559 476.116 C 379.878 466.621,378.727 462.590,375.565 458.627 L 373.703 456.294 366.550 456.744 C 361.200 457.079,358.803 457.535,357.047 458.548 C 355.755 459.293,353.339 460.255,351.678 460.685 C 349.980 461.124,348.731 461.822,348.826 462.277 C 350.080 468.337,294.575 441.530,283.221 430.593 C 274.921 422.597,269.853 420.423,253.391 417.796 C 229.439 413.975,225.095 410.718,219.104 392.088 C 215.702 381.512,208.969 365.072,202.690 352.013 C 200.560 347.584,197.984 341.415,196.965 338.304 L 195.113 332.648 196.318 327.566 C 199.190 315.449,197.426 304.241,190.290 289.262 C 187.916 284.279,185.788 278.842,185.562 277.181 C 185.336 275.520,183.920 269.650,182.416 264.137 L 179.682 254.114 180.439 247.695 C 180.856 244.164,181.493 237.198,181.854 232.215 C 182.216 227.232,183.117 220.738,183.856 217.785 C 186.042 209.050,187.964 193.833,188.603 180.201 C 189.131 168.942,189.656 165.266,191.583 159.339 C 191.747 158.834,194.053 158.982,199.098 159.820 C 205.699 160.918,220.640 161.317,236.836 160.827 L 239.779 160.738 241.401 167.785 C 244.213 180.000,244.879 183.403,245.603 189.244 C 246.598 197.263,246.482 209.689,245.325 219.128 C 244.782 223.557,244.032 229.861,243.659 233.136 C 242.561 242.765,240.168 245.202,230.707 246.322 C 228.030 246.639,223.574 247.532,220.805 248.307 C 218.037 249.082,213.057 249.931,209.739 250.193 C 204.653 250.596,203.670 250.863,203.472 251.896 C 202.783 255.499,210.174 258.344,217.202 257.179 C 222.494 256.302,222.917 256.477,220.842 258.686 C 216.372 263.444,220.638 279.420,225.844 277.422 C 226.466 277.183,227.385 277.686,228.183 278.700 C 229.827 280.790,231.790 281.341,233.358 280.152 C 235.132 278.806,235.328 278.961,235.034 281.478 C 234.816 283.349,235.027 283.843,236.208 284.218 C 237.770 284.713,239.597 283.610,239.597 282.172 C 239.597 281.685,239.896 281.103,240.261 280.877 C 240.634 280.647,240.758 280.900,240.545 281.456 C 239.941 283.028,241.497 285.235,243.208 285.235 C 245.189 285.235,246.679 283.572,247.965 279.926 C 248.527 278.335,250.584 275.307,252.537 273.197 C 257.504 267.832,261.639 259.441,262.479 253.020 C 262.842 250.252,263.419 245.836,263.761 243.208 C 264.104 240.579,265.310 235.143,266.441 231.127 C 274.527 202.412,279.192 144.245,273.762 139.839 C 269.128 136.079,237.641 123.956,225.168 121.129 C 222.348 120.490,215.640 119.916,208.389 119.693 C 196.580 119.329,196.241 119.278,193.289 117.419 C 185.345 112.417,177.705 110.084,169.231 110.072 C 166.044 110.068,165.322 109.785,162.779 107.550 C 161.204 106.166,157.312 103.574,154.129 101.789 C 148.948 98.885,148.259 98.268,147.550 95.900 C 147.035 94.180,146.151 92.965,145.023 92.426 C 140.048 90.049,141.289 84.950,150.827 68.566 C 152.833 65.120,155.040 60.657,155.731 58.649 C 156.422 56.641,157.421 54.564,157.950 54.034 C 158.876 53.109,160.403 46.210,160.403 42.953 C 160.403 37.308,158.901 32.913,155.739 29.299 C 153.540 26.786,152.413 24.828,152.123 23.020 C 151.885 21.531,151.003 19.734,150.088 18.874 C 149.100 17.946,148.599 16.871,148.799 16.108 C 149.127 14.851,144.466 12.081,142.024 12.081 C 141.349 12.081,140.952 11.256,140.812 9.564 C 140.613 7.157,140.507 7.056,138.398 7.261 C 136.331 7.462,136.220 7.367,136.626 5.751 C 137.048 4.068,136.976 4.027,133.630 4.027 C 130.441 4.027,129.291 3.327,130.872 2.349 C 132.589 1.288,131.272 0.586,127.862 0.744 C 125.838 0.838,123.975 0.709,123.724 0.457 C 123.472 0.206,123.090 0.036,122.875 0.081 C 122.659 0.125,119.939 0.737,116.829 1.441 " stroke="none" fill="#000000" fill-rule="evenodd"></path></g></svg>