<svg id="svg" xmlns="http://www.w3.org/2000/svg" xmlns:xlink="http://www.w3.org/1999/xlink" width="400" height="562.8205128205128" viewBox="0, 0, 400,562.8205128205128"><g id="svgg"><path id="path0" d="M74.138 4.964 C 60.337 10.737,57.281 13.325,58.074 18.561 C 58.398 20.692,57.781 24.160,56.704 26.267 C 55.587 28.453,54.609 34.235,54.427 39.729 C 54.252 45.025,53.188 51.872,52.063 54.944 C 49.802 61.117,50.204 62.821,53.922 62.821 C 55.325 62.821,56.410 63.696,56.410 64.828 C 56.410 65.932,57.114 68.095,57.975 69.636 C 60.575 74.291,62.781 81.210,62.801 84.779 C 62.827 89.294,64.833 90.694,72.788 91.749 C 76.473 92.238,79.487 93.072,79.487 93.603 C 79.487 95.079,71.529 100.820,66.585 102.911 C 55.837 107.457,54.377 120.078,61.475 147.086 C 62.124 149.555,62.032 153.314,61.247 156.405 C 60.303 160.125,60.375 163.839,61.504 169.573 L 63.075 177.560 56.960 183.096 C 44.932 193.986,38.222 195.656,27.564 190.413 C 9.084 181.322,-3.969 191.200,2.409 209.450 L 4.707 216.026 14.666 215.783 C 20.144 215.649,27.306 214.968,30.582 214.270 C 33.858 213.571,47.398 212.866,60.670 212.702 L 84.802 212.404 88.304 219.343 C 90.230 223.160,95.424 231.662,99.847 238.237 C 115.170 261.020,114.756 264.572,95.888 272.163 C 74.701 280.686,27.846 316.406,19.766 330.194 C 11.857 343.689,15.818 361.757,30.325 378.358 C 34.257 382.857,40.543 391.260,44.294 397.030 C 48.045 402.800,55.782 413.913,61.487 421.724 C 79.950 447.005,85.819 461.660,80.038 468.048 C 78.185 470.096,78.087 471.251,79.341 476.233 C 80.231 479.769,80.357 482.913,79.664 484.286 C 79.038 485.525,77.214 489.135,75.611 492.308 C 74.008 495.481,71.677 500.096,70.432 502.564 C 67.771 507.840,62.998 512.492,55.449 517.169 C 49.296 520.981,48.591 523.910,52.885 527.824 C 64.516 538.427,82.636 532.936,118.894 507.819 C 143.457 490.803,141.941 492.627,137.872 484.985 C 136.081 481.620,134.615 478.190,134.615 477.363 C 134.615 474.885,121.319 460.257,119.066 460.256 C 117.918 460.256,114.794 457.083,112.123 453.205 C 109.451 449.327,106.748 446.154,106.116 446.154 C 103.755 446.154,93.773 422.107,91.009 409.763 C 87.589 394.486,78.748 376.101,69.163 364.337 C 60.512 353.719,63.283 351.458,90.559 346.886 C 104.007 344.632,121.013 339.529,129.686 335.147 L 135.655 332.131 137.690 335.238 C 139.689 338.288,139.836 338.310,145.824 336.466 C 157.589 332.842,156.806 332.698,161.529 339.352 C 163.934 342.740,174.007 353.879,183.913 364.104 C 193.818 374.330,205.057 386.322,208.888 390.755 C 218.078 401.389,224.951 406.152,248.053 417.896 C 278.324 433.285,335.897 472.997,335.897 478.488 C 335.897 479.962,337.375 483.106,339.181 485.474 L 342.466 489.779 339.823 493.140 C 335.869 498.165,336.471 499.358,344.776 502.959 L 352.372 506.254 350.971 510.818 C 349.419 515.875,350.266 517.824,353.021 515.537 C 354.480 514.327,355.553 515.206,358.665 520.162 C 364.010 528.673,364.519 532.117,362.152 543.724 C 358.005 564.059,361.933 566.934,375.236 553.300 C 385.454 542.828,389.088 535.107,391.579 518.579 C 392.640 511.534,394.970 499.313,396.755 491.422 C 402.076 467.897,402.927 468.933,375.464 465.496 C 370.783 464.910,366.247 463.995,365.385 463.461 C 364.506 462.919,363.341 463.260,362.738 464.236 C 361.890 465.609,360.880 465.234,358.003 462.477 C 355.992 460.551,353.466 458.974,352.389 458.974 C 349.890 458.974,331.236 437.226,323.429 425.211 C 312.626 408.585,301.490 399.033,283.864 391.276 C 256.121 379.066,256.872 379.664,247.938 362.652 C 237.769 343.288,229.126 330.929,218.141 320.048 L 209.260 311.249 211.300 307.693 C 213.175 304.428,213.166 303.733,211.194 299.184 C 210.013 296.460,208.167 289.327,207.092 283.333 C 204.075 266.515,196.922 253.159,183.761 239.775 C 177.885 233.798,173.069 228.029,173.060 226.954 C 173.051 225.879,171.905 219.519,170.513 212.821 C 168.786 204.510,167.959 195.346,167.910 183.974 C 167.870 174.808,167.332 164.712,166.715 161.538 C 165.837 157.022,166.127 154.177,168.053 148.438 C 169.406 144.406,170.513 140.257,170.513 139.219 C 170.513 136.180,172.253 135.900,178.831 137.880 C 186.813 140.282,195.026 140.249,200.909 137.791 C 207.016 135.239,207.034 135.273,208.814 153.205 C 210.315 168.323,209.897 174.981,206.631 187.974 C 205.943 190.710,205.007 196.987,204.552 201.923 C 204.071 207.131,202.404 213.787,200.580 217.783 C 196.904 225.833,196.791 228.036,199.359 241.459 C 200.417 246.986,201.282 251.623,201.282 251.763 C 201.282 252.704,211.623 252.183,212.222 251.213 C 212.635 250.546,213.840 250.000,214.902 250.000 C 215.964 250.000,219.680 248.775,223.160 247.278 L 229.487 244.556 229.487 234.959 C 229.487 229.232,228.368 221.095,226.712 214.782 C 223.589 202.871,222.859 206.963,233.168 178.557 C 238.088 164.998,243.562 136.801,243.583 124.903 C 243.594 118.340,230.644 109.906,214.010 105.645 C 209.765 104.557,203.866 102.566,200.902 101.221 C 196.958 99.430,192.551 98.767,184.471 98.746 C 174.073 98.720,173.139 98.487,168.446 94.747 C 160.812 88.665,157.082 87.144,147.720 86.294 C 141.428 85.724,137.719 84.591,133.974 82.097 C 131.154 80.218,125.962 77.047,122.436 75.050 C 118.910 73.053,115.822 71.253,115.574 71.049 C 115.325 70.844,117.485 65.548,120.372 59.279 C 134.901 27.740,126.741 8.048,96.667 2.066 C 90.956 0.929,86.052 0.070,85.770 0.156 C 85.487 0.242,80.253 2.406,74.138 4.964 " stroke="none" fill="#000000" fill-rule="evenodd"></path></g></svg>