<svg id="svg" xmlns="http://www.w3.org/2000/svg" xmlns:xlink="http://www.w3.org/1999/xlink" width="400" height="544.9591280653951" viewBox="0, 0, 400,544.9591280653951"><g id="svgg"><path id="path0" d="M226.703 1.055 C 207.058 5.206,198.363 15.657,199.019 34.332 C 199.266 41.359,200.855 44.771,208.979 55.711 C 215.499 64.493,215.669 64.840,216.344 70.801 C 217.143 77.855,216.076 82.920,213.642 83.621 C 213.183 83.754,211.440 84.248,209.771 84.721 C 207.254 85.432,206.454 85.978,205.090 87.912 C 204.109 89.305,201.551 91.506,198.748 93.372 C 196.164 95.091,192.735 97.699,191.129 99.167 C 189.522 100.636,187.545 102.004,186.735 102.207 C 184.658 102.728,179.645 106.128,175.420 109.882 C 173.440 111.640,171.399 113.324,170.885 113.624 C 170.311 113.958,169.662 115.538,169.207 117.711 C 168.222 122.413,168.073 122.709,166.076 123.978 C 165.133 124.578,162.012 128.415,159.141 132.507 C 156.271 136.598,152.425 141.625,150.595 143.678 C 145.210 149.721,144.317 150.901,144.680 151.488 C 144.870 151.795,144.152 153.460,143.085 155.189 C 142.017 156.918,141.144 158.512,141.144 158.731 C 141.144 158.950,139.214 162.378,136.855 166.349 C 129.986 177.911,129.503 179.018,129.524 183.179 C 129.545 187.334,130.880 190.665,133.551 193.221 L 135.225 194.823 148.948 194.801 C 161.785 194.780,182.210 192.317,189.495 189.911 C 189.898 189.778,190.390 190.597,190.740 191.985 C 191.059 193.246,192.427 197.787,193.780 202.076 C 195.134 206.365,196.853 212.345,197.600 215.366 C 198.348 218.386,199.343 221.600,199.813 222.508 C 200.884 224.579,200.543 228.206,199.078 230.332 C 198.491 231.183,197.692 232.738,197.302 233.787 C 196.913 234.837,195.172 238.760,193.434 242.507 C 186.771 256.870,186.467 269.852,192.444 284.861 C 193.038 286.354,193.003 287.005,192.209 289.221 C 191.063 292.419,191.034 294.533,192.098 297.548 C 193.236 300.774,193.138 301.659,191.354 304.261 C 189.942 306.321,183.651 319.325,183.651 320.184 C 183.651 320.380,184.141 321.228,184.740 322.069 L 185.828 323.598 183.679 328.965 C 181.035 335.571,179.191 342.580,177.393 352.863 C 173.942 372.601,169.634 375.857,153.976 370.562 C 141.155 366.227,127.060 364.190,116.679 365.172 C 111.538 365.658,108.453 366.335,93.733 370.213 C 71.290 376.124,48.814 376.266,42.195 370.539 C 38.007 366.913,28.369 362.593,24.251 362.494 C 23.651 362.480,22.478 362.299,21.643 362.093 C 18.573 361.335,16.272 366.644,11.372 385.798 C 10.179 390.462,7.508 399.489,5.436 405.858 C -0.500 424.104,-1.043 429.388,1.368 445.448 C 2.327 451.837,2.808 452.861,4.850 452.861 C 8.402 452.861,10.517 449.640,13.281 440.023 C 14.587 435.482,15.525 433.261,16.672 431.995 C 17.545 431.033,18.849 429.070,19.572 427.633 C 21.960 422.883,30.411 414.999,39.053 409.460 C 41.183 408.095,41.801 407.406,41.597 406.625 C 41.257 405.323,46.438 403.824,56.955 402.180 C 71.825 399.856,79.330 400.096,100.339 403.566 C 119.872 406.792,128.151 407.699,142.507 408.184 C 153.333 408.549,157.809 408.941,164.305 410.093 C 185.146 413.789,190.298 412.332,198.411 400.450 C 200.933 396.757,207.684 387.479,213.413 379.834 C 226.721 362.075,229.514 357.730,237.827 341.861 L 238.870 339.870 241.097 342.535 C 247.191 349.826,251.876 355.112,263.690 368.025 C 280.730 386.649,279.184 383.443,279.638 401.090 C 280.262 425.318,283.654 438.812,294.482 460.147 C 305.920 482.682,315.185 509.103,316.118 521.843 C 316.695 529.715,318.059 534.423,320.843 538.147 C 321.964 539.646,323.127 541.602,323.429 542.495 C 324.795 546.535,328.657 545.185,348.774 533.636 C 354.319 530.452,362.975 525.951,368.009 523.632 C 382.768 516.836,400.000 501.869,400.000 495.846 C 400.000 491.691,394.865 491.822,386.498 496.189 C 373.885 502.773,362.985 503.231,344.758 497.942 C 335.607 495.287,327.392 473.960,323.719 443.324 C 322.785 435.531,321.403 426.213,320.647 422.616 C 315.179 396.570,314.629 392.672,315.438 385.681 C 316.958 372.540,316.476 370.298,310.067 360.674 C 305.075 353.180,304.033 351.222,298.325 338.621 C 296.097 333.703,292.428 325.994,290.172 321.489 C 287.917 316.985,286.210 313.076,286.379 312.801 C 286.549 312.527,286.030 311.006,285.227 309.421 C 283.369 305.757,281.407 297.991,280.918 292.371 C 280.432 286.781,279.241 284.102,275.501 280.180 C 273.202 277.770,272.480 276.620,272.480 275.367 C 272.480 274.462,271.832 272.768,271.040 271.602 C 268.491 267.848,264.335 256.575,265.373 256.229 C 265.685 256.125,265.940 255.195,265.940 254.162 C 265.940 253.130,266.695 250.790,267.617 248.963 C 269.195 245.837,269.465 243.052,268.189 243.052 C 265.465 243.052,264.519 239.008,266.683 236.619 C 267.752 235.439,267.821 234.734,267.834 224.902 C 267.850 212.256,268.124 211.316,271.648 211.799 C 274.921 212.248,276.254 211.363,283.412 203.991 C 292.698 194.429,297.435 187.301,301.666 176.526 C 306.252 164.845,310.161 157.899,316.556 150.066 C 318.469 147.724,320.494 144.733,321.057 143.420 C 321.620 142.106,322.569 140.411,323.166 139.652 C 324.463 138.003,324.615 134.496,323.433 133.515 C 322.984 133.142,322.616 132.360,322.616 131.778 C 322.616 130.141,321.594 128.609,320.130 128.053 C 319.253 127.719,318.801 127.121,318.801 126.293 C 318.801 124.594,317.336 122.616,316.078 122.616 C 315.513 122.616,314.899 122.371,314.714 122.071 C 314.529 121.771,314.008 121.526,313.557 121.526 C 313.105 121.526,312.140 120.817,311.411 119.951 C 309.929 118.190,306.199 116.473,304.921 116.963 C 304.289 117.206,304.087 116.894,304.087 115.674 C 304.087 112.189,301.492 111.525,299.932 114.612 C 299.450 115.567,298.617 116.839,298.082 117.439 C 294.556 121.386,292.418 136.734,294.550 142.779 C 295.828 146.401,295.584 147.484,292.164 153.355 C 290.402 156.381,288.215 160.327,287.304 162.125 C 284.248 168.155,283.961 168.238,283.941 163.095 L 283.924 158.616 286.104 157.373 C 287.597 156.522,288.180 155.873,287.954 155.313 C 287.109 153.220,286.012 143.765,285.550 134.605 C 284.559 114.954,281.526 101.082,277.407 97.360 C 274.691 94.907,265.981 90.278,261.308 88.805 C 251.678 85.769,251.424 85.481,253.983 80.501 C 254.572 79.354,255.041 77.345,255.041 75.969 C 255.041 72.311,255.643 71.656,260.793 69.712 C 268.271 66.890,270.123 64.252,267.568 60.061 L 266.476 58.270 267.707 56.084 C 268.868 54.022,268.884 53.859,267.984 53.184 C 266.703 52.223,266.780 51.651,268.392 50.136 C 269.794 48.819,270.171 47.188,269.210 46.594 C 268.259 46.006,268.581 42.628,269.662 41.857 C 273.138 39.375,272.834 36.405,268.821 33.623 C 264.795 30.833,262.492 28.055,263.164 26.799 C 264.238 24.792,263.811 22.592,261.707 19.294 C 260.578 17.524,259.363 15.415,259.007 14.607 C 258.652 13.799,257.430 12.107,256.292 10.848 C 255.052 9.475,254.295 8.135,254.402 7.502 C 255.249 2.489,238.436 -1.424,226.703 1.055 M181.460 163.466 C 182.696 165.887,182.941 169.447,181.880 169.545 C 179.819 169.735,166.213 167.812,166.213 167.331 C 166.213 167.142,167.573 166.206,169.236 165.250 L 172.260 163.514 174.269 164.591 C 176.906 166.004,176.867 166.014,178.539 163.488 C 180.293 160.836,180.119 160.838,181.460 163.466 " stroke="none" fill="#000000" fill-rule="evenodd"></path></g></svg>