<svg id="svg" xmlns="http://www.w3.org/2000/svg" xmlns:xlink="http://www.w3.org/1999/xlink" width="400" height="625" viewBox="0, 0, 400,625"><g id="svgg"><path id="path0" d="M216.250 3.402 C 192.569 14.329,187.424 51.825,206.831 72.054 C 210.892 76.287,210.917 86.139,206.875 89.437 C 201.944 93.459,166.581 105.000,159.187 105.000 C 155.509 105.000,152.500 106.140,152.500 107.532 C 152.500 108.925,147.202 112.582,140.726 115.657 C 134.250 118.733,126.937 123.219,124.476 125.625 C 122.014 128.031,118.031 130.011,115.625 130.024 C 99.284 130.116,67.500 153.741,67.500 165.796 C 67.500 173.990,104.392 212.909,125.231 226.699 C 130.187 229.979,135.728 235.439,137.544 238.832 C 142.071 247.292,160.417 244.438,166.683 234.299 C 168.884 230.738,175.154 254.190,173.296 259.033 C 172.564 260.940,169.958 262.500,167.504 262.500 C 155.580 262.500,147.922 313.726,157.144 331.801 C 162.253 341.816,162.287 342.466,158.097 349.788 C 154.629 355.850,154.342 358.337,156.678 362.094 C 159.129 366.034,157.672 370.633,147.750 390.276 L 135.894 413.750 119.333 414.264 C 107.565 414.629,99.297 416.529,90.761 420.829 C 84.155 424.157,70.742 429.754,60.955 433.267 L 43.160 439.654 31.157 433.577 C 8.586 422.151,-2.759 436.615,6.325 465.236 C 7.333 468.412,6.235 476.110,3.719 483.513 C -1.470 498.778,2.571 520.473,10.901 522.077 C 22.599 524.330,26.486 520.705,29.449 504.777 C 32.513 488.300,38.230 477.155,43.113 478.141 C 44.773 478.476,46.508 476.287,46.970 473.278 C 48.605 462.599,97.266 453.258,143.190 454.808 C 161.771 455.435,166.643 453.753,168.579 446.043 C 169.445 442.590,178.557 431.362,188.827 421.092 C 199.097 410.822,207.500 401.312,207.500 399.960 C 207.500 398.607,208.494 397.500,209.708 397.500 C 210.923 397.500,212.505 395.250,213.224 392.500 C 215.100 385.327,217.373 386.058,236.452 399.967 C 245.857 406.824,254.160 412.730,254.901 413.092 C 259.966 415.563,267.507 431.173,267.550 439.274 C 267.686 464.814,272.358 480.825,292.085 523.350 C 313.274 569.027,318.753 583.450,316.375 587.298 C 314.787 589.868,322.112 619.818,325.206 623.408 C 326.229 624.595,334.480 622.064,343.540 617.783 C 352.600 613.502,360.560 610.000,361.228 610.000 C 361.896 610.000,364.742 608.031,367.552 605.625 C 370.363 603.219,373.210 601.555,373.880 601.927 C 374.549 602.300,377.537 600.331,380.520 597.552 C 383.503 594.773,387.162 592.500,388.653 592.500 C 394.460 592.500,400.724 576.091,397.120 570.320 C 393.271 564.158,388.757 563.744,380.000 568.750 C 368.316 575.429,347.500 572.170,347.500 563.662 C 347.500 561.648,345.531 559.965,343.125 559.921 C 329.075 559.669,298.575 447.419,304.895 419.220 C 308.554 402.893,306.073 398.070,281.511 373.750 C 248.724 341.287,247.449 339.198,251.836 325.132 C 253.788 318.872,255.420 303.625,255.461 291.250 C 255.527 271.696,264.655 222.012,268.976 217.691 C 269.568 217.099,273.240 219.668,277.136 223.401 C 291.256 236.929,312.406 235.495,317.240 220.683 C 320.248 211.465,312.778 183.126,304.808 173.520 C 303.563 172.018,303.284 170.050,304.188 169.145 C 305.093 168.240,304.683 167.500,303.278 167.500 C 301.872 167.500,300.044 159.344,299.216 149.375 C 297.135 124.334,293.208 113.220,285.784 111.356 C 282.491 110.530,273.520 107.505,265.848 104.635 L 251.900 99.416 258.079 94.083 C 276.141 78.495,274.729 15.565,256.118 6.691 C 243.821 0.826,225.166 -0.712,216.250 3.402 M162.224 174.059 C 171.697 215.014,171.522 215.265,139.233 207.129 C 109.542 199.648,88.740 157.568,114.681 157.463 C 119.669 157.443,130.500 155.295,138.750 152.689 C 156.854 146.972,155.721 145.941,162.224 174.059 M282.227 186.437 C 284.005 191.353,285.074 195.700,284.605 196.099 C 282.724 197.692,272.732 202.500,271.301 202.500 C 269.890 202.500,271.608 187.849,273.866 180.625 C 275.618 175.019,278.931 177.322,282.227 186.437 " stroke="none" fill="#000000" fill-rule="evenodd"></path></g></svg>