<svg id="svg" xmlns="http://www.w3.org/2000/svg" xmlns:xlink="http://www.w3.org/1999/xlink" width="400" height="393" viewBox="0, 0, 400,393"><g id="svgg"><path id="path0" d="M354.243 0.899 C 339.090 6.139,331.468 26.024,339.568 39.187 C 341.932 43.030,341.974 44.751,339.773 47.625 C 337.447 50.662,337.627 50.702,332.699 46.037 C 325.328 39.060,318.025 38.264,304.556 42.968 L 296.861 45.656 293.556 44.955 C 291.280 44.473,286.587 44.246,278.500 44.230 C 268.390 44.209,266.436 44.080,264.500 43.305 C 260.849 41.845,254.871 41.763,243.250 43.014 C 235.484 43.850,229.495 44.158,220.250 44.197 L 207.750 44.250 205.500 45.571 C 204.262 46.297,201.113 47.853,198.500 49.028 C 189.098 53.259,182.990 57.437,169.308 69.000 C 151.397 84.137,149.440 85.320,137.190 88.423 C 129.364 90.405,124.000 94.774,124.000 99.167 C 124.000 99.522,123.305 100.474,122.455 101.281 C 120.424 103.213,119.690 104.713,119.274 107.785 C 118.706 111.978,119.551 112.197,125.296 109.344 C 129.941 107.036,131.500 106.561,131.500 107.452 C 131.500 108.034,127.507 110.378,125.104 111.206 C 122.777 112.008,122.381 113.571,124.201 114.764 C 125.756 115.783,129.154 115.199,132.994 113.253 C 134.354 112.564,135.933 112.000,136.503 112.000 C 137.073 112.000,138.439 111.541,139.537 110.981 C 142.155 109.646,142.737 110.106,141.232 112.323 C 139.166 115.369,138.465 118.933,139.726 119.980 C 141.001 121.039,142.142 120.323,143.858 117.387 C 144.778 115.813,146.536 113.684,147.765 112.657 C 150.678 110.221,154.967 103.956,155.995 100.632 C 157.530 95.672,165.924 89.284,178.578 83.446 C 197.724 74.614,200.664 73.195,207.250 69.614 C 215.879 64.922,216.261 64.889,223.500 68.225 C 226.387 69.556,228.949 70.822,229.192 71.039 C 229.435 71.257,228.100 73.399,226.225 75.800 C 224.350 78.202,221.168 82.370,219.154 85.064 C 213.460 92.678,206.555 97.404,196.166 100.797 C 189.139 103.093,177.831 115.095,178.650 119.389 C 178.795 120.153,178.314 121.223,177.188 122.639 C 176.225 123.850,175.508 125.326,175.505 126.101 C 175.502 126.845,175.242 128.019,174.926 128.712 C 174.242 130.213,175.027 131.500,176.627 131.500 C 177.179 131.500,181.325 129.025,185.839 126.000 C 193.336 120.976,196.000 119.662,196.000 120.989 C 196.000 121.559,186.789 127.827,183.500 129.494 C 180.264 131.134,179.483 132.921,181.524 134.013 C 182.770 134.680,184.576 134.176,190.180 131.598 C 193.813 129.927,194.158 129.855,194.735 130.645 C 195.529 131.731,195.557 131.728,198.656 130.327 C 200.083 129.682,203.794 128.051,206.903 126.702 L 212.557 124.250 215.455 120.250 C 218.896 115.500,219.355 114.670,220.294 111.507 C 222.489 104.117,227.495 98.866,239.331 91.538 C 243.962 88.671,250.225 84.745,253.250 82.812 C 260.103 78.435,261.841 77.785,264.660 78.542 C 269.111 79.736,269.274 79.343,260.900 87.656 C 256.374 92.149,252.535 96.437,251.500 98.156 C 245.987 107.313,244.697 108.903,234.550 119.052 C 220.729 132.874,218.992 134.235,210.312 138.034 C 187.419 148.055,177.535 156.227,172.474 169.318 C 170.250 175.069,167.793 177.501,160.404 181.264 C 143.582 189.829,131.245 201.373,111.253 227.250 C 102.051 239.161,95.425 243.961,80.750 249.349 C 60.635 256.733,53.489 263.139,47.425 279.219 C 43.809 288.808,35.061 304.402,27.914 314.000 C 22.068 321.850,17.951 325.179,9.556 328.844 C 0.575 332.764,-0.913 336.858,2.208 349.068 C 3.536 354.266,4.137 358.221,4.915 366.873 C 6.186 381.003,6.753 382.090,14.473 385.208 C 16.245 385.924,18.158 386.931,18.723 387.446 C 21.264 389.763,24.144 390.491,26.793 389.484 C 27.905 389.061,28.341 389.142,29.200 389.931 C 32.368 392.839,37.913 394.031,38.982 392.033 C 39.845 390.421,39.570 389.094,38.177 388.148 C 37.450 387.654,35.637 386.065,34.148 384.618 C 32.660 383.170,30.860 381.604,30.149 381.138 L 28.857 380.291 29.184 374.021 C 29.364 370.572,29.968 365.613,30.527 363.000 C 31.086 360.387,32.097 355.495,32.773 352.127 C 36.217 334.975,44.955 324.306,85.517 287.727 C 99.120 275.460,101.999 273.370,109.250 270.503 C 111.450 269.633,115.838 267.625,119.000 266.039 C 122.162 264.454,127.371 262.319,130.575 261.296 C 138.507 258.761,149.801 252.962,161.500 245.417 C 166.863 241.958,173.725 237.710,176.750 235.977 C 179.775 234.243,186.278 230.164,191.202 226.912 C 196.126 223.660,200.339 221.000,200.564 221.000 C 200.790 221.000,202.643 221.663,204.683 222.474 C 206.724 223.284,213.086 225.203,218.821 226.739 C 225.681 228.575,230.894 230.299,234.053 231.775 C 239.856 234.487,251.986 238.511,258.784 239.978 C 263.263 240.945,268.423 242.186,273.625 243.548 C 276.092 244.193,276.009 244.483,272.709 246.756 C 268.172 249.881,263.753 255.109,261.959 259.475 C 254.953 276.529,240.231 291.076,219.357 301.572 C 203.653 309.468,203.235 313.324,216.469 328.250 C 220.933 333.286,223.773 338.870,224.508 344.061 C 225.750 352.830,228.441 356.583,234.457 357.935 C 235.872 358.253,237.356 359.110,238.692 360.383 C 240.940 362.523,244.972 365.000,246.207 365.000 C 247.296 365.000,248.733 361.487,248.049 360.500 C 247.763 360.087,246.836 358.495,245.990 356.961 C 245.144 355.427,243.450 353.334,242.226 352.311 C 238.643 349.316,238.332 348.336,238.974 342.079 C 239.274 339.148,239.861 333.262,240.278 329.000 C 241.327 318.281,242.437 313.820,244.577 311.726 C 247.707 308.663,261.778 298.716,267.274 295.681 C 270.286 294.019,275.030 291.404,277.817 289.871 C 283.529 286.729,289.027 283.255,301.000 275.219 C 312.026 267.820,322.371 262.439,333.633 258.245 C 340.943 255.523,346.724 247.358,346.672 239.825 C 346.555 222.677,336.230 210.306,315.673 202.684 C 297.714 196.024,286.187 192.417,269.500 188.232 C 264.688 187.025,259.123 185.467,257.134 184.769 C 255.146 184.071,253.065 183.500,252.509 183.500 C 251.015 183.500,251.247 182.857,253.901 179.651 C 255.222 178.055,257.069 175.625,258.005 174.250 C 261.609 168.959,267.481 162.195,269.411 161.110 C 270.506 160.495,272.460 159.117,273.752 158.049 C 275.045 156.980,277.599 155.476,279.427 154.707 C 281.254 153.937,283.792 152.672,285.066 151.897 C 286.340 151.121,288.624 150.059,290.142 149.537 C 293.626 148.339,294.653 147.787,297.766 145.441 C 301.390 142.709,305.117 141.170,310.250 140.285 C 320.509 138.515,322.787 136.607,335.091 119.470 C 339.740 112.997,340.477 111.572,342.450 105.250 C 345.958 94.010,349.336 88.136,354.102 84.989 C 355.396 84.135,358.546 81.465,361.102 79.056 C 370.099 70.579,374.211 68.463,381.942 68.330 C 389.251 68.205,391.638 66.313,390.659 61.420 C 390.439 60.322,390.648 59.657,391.494 58.756 C 392.314 57.883,392.536 57.212,392.307 56.298 C 392.068 55.347,392.237 54.909,392.995 54.502 C 393.699 54.126,394.000 53.456,394.000 52.268 C 394.000 50.218,395.094 49.000,396.936 49.000 C 400.250 49.000,400.333 46.139,397.201 39.903 C 395.004 35.527,394.917 35.191,395.227 32.288 C 395.838 26.560,393.967 18.426,390.963 13.750 C 384.990 4.453,364.602 -2.682,354.243 0.899 " stroke="none" fill="#000000" fill-rule="evenodd"></path></g></svg>